<?xml version="1.0" encoding="UTF-8" standalone="no"?>
<svg
   xmlns:dc="http://purl.org/dc/elements/1.1/"
   xmlns:cc="http://creativecommons.org/ns#"
   xmlns:rdf="http://www.w3.org/1999/02/22-rdf-syntax-ns#"
   xmlns:svg="http://www.w3.org/2000/svg"
   xmlns="http://www.w3.org/2000/svg"
   xmlns:xlink="http://www.w3.org/1999/xlink"
   xmlns:sodipodi="http://sodipodi.sourceforge.net/DTD/sodipodi-0.dtd"
   xmlns:inkscape="http://www.inkscape.org/namespaces/inkscape"
   id="Vector"
   viewBox="0 0 1200 1200"
   version="1.1"
   sodipodi:docname="drawkit-server-woman-colour.svg"
   inkscape:version="0.92.2 5c3e80d, 2017-08-06">
  <metadata
     id="metadata2417">
    <rdf:RDF>
      <cc:Work
         rdf:about="">
        <dc:format>image/svg+xml</dc:format>
        <dc:type
           rdf:resource="http://purl.org/dc/dcmitype/StillImage" />
      </cc:Work>
    </rdf:RDF>
  </metadata>
  <sodipodi:namedview
     pagecolor="#ffffff"
     bordercolor="#666666"
     borderopacity="1"
     objecttolerance="10"
     gridtolerance="10"
     guidetolerance="10"
     inkscape:pageopacity="0"
     inkscape:pageshadow="2"
     inkscape:window-width="1920"
     inkscape:window-height="1036"
     id="namedview2415"
     showgrid="false"
     inkscape:zoom="0.55625733"
     inkscape:cx="510.77109"
     inkscape:cy="525.36235"
     inkscape:window-x="0"
     inkscape:window-y="0"
     inkscape:window-maximized="1"
     inkscape:current-layer="layer4" />
  <defs
     id="defs2276">
    <linearGradient
       inkscape:collect="always"
       id="linearGradient5551">
      <stop
         style="stop-color:#54a0c6;stop-opacity:1;"
         offset="0"
         id="stop5547" />
      <stop
         style="stop-color:#54a0c6;stop-opacity:0;"
         offset="1"
         id="stop5549" />
    </linearGradient>
    <style
       id="style2274">.cls-1,.cls-14,.cls-15,.cls-16,.cls-17,.cls-5{fill:none;}.cls-1{stroke:#dfdfdf;stroke-miterlimit:10;}.cls-1,.cls-14,.cls-16,.cls-5{stroke-width:4px;}.cls-2{fill:#f3f3f3;}.cls-3{fill:#dfdfdf;}.cls-4{fill:#56cad8;}.cls-5{stroke:#ed7562;}.cls-14,.cls-15,.cls-16,.cls-17,.cls-5{stroke-linecap:round;stroke-linejoin:round;}.cls-6{fill:#ed7562;}.cls-7{fill:#de8e68;}.cls-8{fill:#d37c59;}.cls-9{fill:#fcc486;}.cls-10{fill:#fed385;}.cls-11{fill:#fed892;}.cls-12{fill:#fd8369;}.cls-13{fill:#74d5de;}.cls-14{stroke:#fd8369;}.cls-15{stroke:#8bdde4;stroke-width:3px;}.cls-16,.cls-17{stroke:#f3f3f3;}.cls-17{stroke-width:2px;}</style>
    <linearGradient
       inkscape:collect="always"
       xlink:href="#linearGradient5551"
       id="linearGradient5553"
       x1="1516.3864"
       y1="-611.54181"
       x2="-1070.7628"
       y2="-1224.2709"
       gradientUnits="userSpaceOnUse"
       gradientTransform="matrix(0.54296582,0,0,0.64786462,279.63853,-315.91134)" />
  </defs>
  <title
     id="title2278">Artboard 1</title>
  <g
     inkscape:groupmode="layer"
     id="layer4"
     inkscape:label="Background">
    <ellipse
       style="opacity:0.06;fill:url(#linearGradient5553);fill-opacity:1;stroke:none;stroke-width:2.0717566;stroke-opacity:1"
       id="path5473"
       transform="matrix(0.97999092,-0.19904219,0.11433956,-0.99344173,0,0)"
       ry="368.81262"
       rx="424.53946"
       cy="-837.31342"
       cx="743.22845" />
  </g>
  <g
     inkscape:groupmode="layer"
     id="layer3"
     inkscape:label="Main">
    <polyline
       style="fill:none;stroke:#dfdfdf;stroke-width:4px;stroke-miterlimit:10"
       class="cls-1"
       points="205.45 483.05 176 483.05 176 722.67"
       id="polyline2280"
       transform="matrix(0.96019366,0,0,1.0650167,31.436754,-111.96531)" />
    <rect
       style="fill:#f3f3f3;stroke-width:1.01124787"
       class="cls-2"
       x="282.31616"
       y="371.00909"
       width="251.97404"
       height="538.2381"
       id="rect2282" />
    <rect
       style="fill:#dfdfdf;stroke-width:1.01124787"
       class="cls-3"
       x="224.39729"
       y="371.00909"
       width="58.610226"
       height="538.2381"
       id="rect2284" />
    <path
       style="fill:#56cad8;stroke-width:1.01124787"
       class="cls-4"
       d="m 283.91007,925.36097 c -56.87228,0 -153.90944,-96.26688 -153.90944,-176.21768 0,-6.08123 2.60212,-17.56212 8.34408,-17.56212 31.04307,-0.0532 145.56536,102.5824 145.56536,193.7798 z"
       id="path2286"
       inkscape:connector-curvature="0" />
    <polyline
       style="fill:none;stroke:#dfdfdf;stroke-width:4px;stroke-miterlimit:10"
       class="cls-1"
       points="655.57 316.71 655.57 646.56 674.5 646.56"
       id="polyline2288"
       transform="matrix(0.96019366,0,0,1.0650167,31.436754,-111.96531)" />
    <line
       style="fill:none;stroke:#ed7562;stroke-width:4.04499149px;stroke-linecap:round;stroke-linejoin:round"
       class="cls-5"
       x1="960.77936"
       y1="962.14667"
       x2="898.38599"
       y2="845.69769"
       id="line2290" />
    <line
       style="fill:none;stroke:#ed7562;stroke-width:4.04499149px;stroke-linecap:round;stroke-linejoin:round"
       class="cls-5"
       x1="987.83765"
       y1="962.14667"
       x2="925.44421"
       y2="845.69769"
       id="line2292" />
    <line
       style="fill:none;stroke:#ed7562;stroke-width:4.04499149px;stroke-linecap:round;stroke-linejoin:round"
       class="cls-5"
       x1="788.66461"
       y1="962.14667"
       x2="851.04852"
       y2="845.69769"
       id="line2294" />
    <path
       style="fill:#ed7562;stroke-width:1.01124787"
       class="cls-6"
       d="m 932.09839,600.31787 h 92.24581 L 962.3925,849.35072 H 805.22801 v -8.8716 h 116.5579 z"
       id="path2296"
       inkscape:connector-curvature="0" />
    <rect
       style="fill:#de8e68;stroke-width:1.01149893"
       class="cls-7"
       x="637.49811"
       y="1074.9565"
       width="17.744419"
       height="17.502016"
       transform="matrix(0.98544566,-0.16999073,0.13885758,0.99031236,0,0)"
       id="rect2298" />
    <rect
       style="fill:#de8e68;stroke-width:1.01351333"
       class="cls-7"
       x="1059.7649"
       y="361.66608"
       width="18.290728"
       height="17.046961"
       transform="matrix(0.81141792,0.58446639,-0.50525925,0.86296761,0,0)"
       id="rect2300" />
    <path
       class="cls-4"
       d="m 750.21853,763.75533 c -12.91462,0 -77.37242,166.45145 -77.37242,172.5327 0,6.08124 13.99003,12.98254 16.05442,12.98254 3.21666,-3.3122 64.91872,-102.2416 71.3424,-109.1429 6.4237,-6.90131 -10.0244,-76.37234 -10.0244,-76.37234 z"
       id="path2302"
       style="fill:#5a9ec0;fill-opacity:1;stroke-width:1.01124787"
       inkscape:connector-curvature="0" />
    <path
       style="fill:#d37c59;stroke-width:1.01124787"
       class="cls-8"
       d="m 852.78641,641.52336 c -4.24407,1.48037 -24.96505,21.17252 -28.58497,44.82654 -3.68715,-0.4899 -25.81001,-1.51231 -35.02787,-1.92766 -3.01501,-5.20794 -9.36189,-8.81835 -16.72658,-8.81835 -10.26445,0 -18.58934,6.99716 -18.58934,15.62379 0,0.1917 0,0.37276 0,0.56447 h 37.11149 c 0,-0.19171 0,-0.37277 0,-0.56447 a 11.186256,12.407445 0 0 0 -1.53632,-6.19839 l 32.24331,5.69785 38.30212,4.4198 3.9464,-37.10516 z"
       id="path2304"
       inkscape:connector-curvature="0" />
    <path
       style="fill:#fcc486;stroke-width:1.01124787"
       class="cls-9"
       d="m 884.58801,615.16419 c 0,-2.99269 -6.72135,-6.3901 -11.65675,-6.3901 -13.17386,0 -35.45995,26.62543 -35.45995,29.96957 0,3.34416 16.04483,18.23309 28.37372,19.1277 12.32891,0.89463 18.74298,-42.70717 18.74298,-42.70717 z"
       id="path2306"
       inkscape:connector-curvature="0" />
    <path
       style="fill:#fed385;stroke-width:1.01124787"
       class="cls-10"
       d="m 917.31141,593.82125 c 74.46303,0 57.44839,186.58028 48.00969,194.46141 -9.4387,7.88113 -92.17859,8.60534 -97.56528,0.72421 -5.38668,-7.88112 -38.81102,-195.18562 49.55559,-195.18562 z"
       id="path2308"
       inkscape:connector-curvature="0" />
    <path
       style="fill:#d37c59;stroke-width:1.01124787"
       class="cls-8"
       d="m 930.39884,558.13255 h -29.76599 v 44.23015 c 0,7.01846 29.76599,7.07169 29.76599,0 z"
       id="path2310"
       inkscape:connector-curvature="0" />
    <ellipse
       style="fill:#de8e68;stroke-width:1.01151121"
       class="cls-7"
       cx="-369.77979"
       cy="977.37701"
       rx="48.398811"
       ry="29.504202"
       transform="matrix(0.1423006,-0.98982349,0.98471687,0.17416284,0,0)"
       id="ellipse2312" />
    <path
       style="stroke-width:1.01124787"
       d="m 979.62799,464.74123 c 14.4029,0 28.80581,8.52014 47.04951,8.52014 14.4029,0 27.8456,-6.3901 45.1291,-6.3901 30.7262,0 40.3281,22.36535 40.3281,36.21058 0,35.14554 -25.9252,48.99075 -45.1291,48.99075 -30.7262,0 -34.567,-23.43035 -71.05433,-23.43035 -35.52716,0 -30.72619,-31.95051 -38.40774,-31.95051 -3.84077,0 -6.24125,0.53252 -7.68155,2.13003 -1.4403,1.59752 -8.64174,-4.26007 -8.64174,-6.3901 0,-2.13003 9.60193,-27.69044 38.40775,-27.69044 z"
       id="path2314"
       inkscape:connector-curvature="0" />
    <path
       style="stroke-width:1.01124787"
       d="m 915.295,476.45642 c -33.96204,0 -41.06747,28.6596 -41.06747,36.93478 0,8.27517 4.71455,14.40967 7.12463,14.61203 1.49791,-9.894 8.64175,-23.54752 8.97781,-23.85637 1.92038,2.13003 9.03544,8.96743 16.3233,9.58515 a 36.189699,40.140479 0 0 1 17.13946,5.92149 18.330097,20.331169 0 0 0 2.74615,7.71072 16.688167,18.50999 0 0 0 8.4305,7.61487 20.778591,23.046961 0 0 1 1.44989,7.45511 c 0,11.3744 -0.9602,15.97525 -1.92038,19.17031 15.65115,0 23.04464,-17.88163 23.04464,-40.47064 0,-37.19039 -29.66999,-44.67745 -42.24853,-44.67745 z"
       id="path2316"
       inkscape:connector-curvature="0" />
    <ellipse
       style="fill:#de8e68;stroke-width:1.01124787"
       class="cls-7"
       cx="936.37134"
       cy="542.65784"
       id="circle2318"
       rx="8.2960739"
       ry="9.2017441" />
    <path
       style="fill:#de8e68;stroke-width:1.01124787"
       class="cls-7"
       d="m 908.57366,662.69588 c -3.35109,0.89463 -16.7842,10.12832 -24.84021,26.06097 -7.92162,-1.64012 -40.14571,-10.57562 -68.74988,-10.57562 -2.68854,0 -9.66914,-2.44953 -12.4825,-2.44953 -16.7746,0 -20.27929,10.05377 -20.27929,13.02515 0,2.9714 0.57611,3.0566 1.09461,3.0566 57.61162,0 72.10094,26.95557 104.50747,26.95557 10.48532,0 32.0993,-8.42428 45.12911,-30.00153 -4.57052,-17.18936 -24.37931,-26.07161 -24.37931,-26.07161 z"
       id="path2320"
       inkscape:connector-curvature="0" />
    <path
       style="fill:#fed892;stroke-width:1.01124787"
       class="cls-11"
       d="m 965.20588,626.37883 c 17.99403,19.37265 -27.50954,72.99623 -34.80704,72.20812 -7.29745,-0.78812 -33.60676,-31.51384 -33.85641,-40.85404 -0.24966,-9.34019 51.27434,-50.08773 68.66345,-31.35408 z"
       id="path2322"
       inkscape:connector-curvature="0" />
    <rect
       style="fill:#fd8369;stroke-width:1.01124787"
       class="cls-12"
       x="595.80981"
       y="694.1991"
       width="406.38275"
       height="14.548127"
       id="rect2324" />
    <path
       class="cls-13"
       d="m 965.15787,797.55896 c 0,-4.57959 0.72014,-9.88336 -1.85318,-11.06552 -61.08752,-27.9354 -150.51995,-31.55646 -164.29873,-31.55646 -13.77879,0 -54.06851,1.55492 -54.06851,14.34578 0,46.20042 23.20788,188.4334 27.92245,193.74784 2.23723,2.50278 21.74838,0.83071 24.17765,-1.87443 -0.16323,-11.71519 5.97241,-129.38889 0.37448,-143.6388 51.34156,20.87433 109.64451,30.75768 125.00762,30.75768 44.52418,-0.0532 42.73822,-45.28452 42.73822,-50.71609 z"
       id="path2326"
       style="fill:#64a7cc;fill-opacity:1;stroke-width:1.01124787"
       inkscape:connector-curvature="0" />
    <polygon
       points="680.52,1001.56 664.38,990.8 620.94,981.7 616.81,988.52 668,1020.17 "
       id="polygon2328"
       transform="matrix(0.96019366,0,0,1.0650167,31.436754,-111.96531)" />
    <polygon
       points="799.23,1012.08 780.08,1015.09 741.95,1037.81 743.53,1045.64 802.63,1034.26 "
       id="polygon2330"
       transform="matrix(0.96019366,0,0,1.0650167,31.436754,-111.96531)" />
    <line
       style="fill:none;stroke:#fd8369;stroke-width:4.04499149px;stroke-linecap:round;stroke-linejoin:round"
       class="cls-14"
       x1="980.35785"
       y1="925.7124"
       x2="980.35785"
       y2="704.67877"
       id="line2332" />
    <line
       style="fill:none;stroke:#fd8369;stroke-width:4.04499149px;stroke-linecap:round;stroke-linejoin:round"
       class="cls-14"
       x1="642.70569"
       y1="925.7124"
       x2="642.70569"
       y2="704.67877"
       id="line2334" />
    <line
       style="fill:none;stroke:#fd8369;stroke-width:4.04499149px;stroke-linecap:round;stroke-linejoin:round"
       class="cls-14"
       x1="951.82086"
       y1="970.00647"
       x2="951.82086"
       y2="704.67877"
       id="line2336" />
    <line
       style="fill:none;stroke:#fd8369;stroke-width:4.04499149px;stroke-linecap:round;stroke-linejoin:round"
       class="cls-14"
       x1="612.5556"
       y1="970.00647"
       x2="612.5556"
       y2="704.67877"
       id="line2338" />
    <line
       style="fill:none;stroke:#ed7562;stroke-width:4.04499149px;stroke-linecap:round;stroke-linejoin:round"
       class="cls-5"
       x1="816.42389"
       y1="962.14667"
       x2="878.80762"
       y2="845.69769"
       id="line2340" />
    <rect
       style="fill:#74d5de;stroke-width:1.01124787"
       class="cls-13"
       x="744.9375"
       y="691.52588"
       width="67.472809"
       height="2.673192"
       id="rect2342" />
    <rect
       style="fill:#74d5de;stroke-width:1.01124787"
       class="cls-13"
       x="670.09033"
       y="517.29974"
       width="147.3129"
       height="118.65353"
       id="rect2344" />
    <polygon
       style="fill:#56cad8"
       class="cls-4"
       points="699.13,756.95 736.22,756.95 756.76,681.31 720.29,681.31 "
       id="polygon2346"
       transform="matrix(0.96019366,0,0,1.0650167,31.436754,-111.96531)" />
    <path
       style="fill:#dfdfdf;stroke-width:1.01124787"
       class="cls-3"
       d="M 751.76442,231.06591 A 42.949463,47.638197 0 0 0 706.20324,152.59548 59.532007,66.031035 0 0 0 601.54214,162.8942 42.949463,47.638197 0 0 0 548.3378,231.05529 Z"
       id="path2348"
       inkscape:connector-curvature="0" />
    <polyline
       style="fill:none;stroke:#dfdfdf;stroke-width:4px;stroke-miterlimit:10"
       class="cls-1"
       points="639.95 313.62 639.95 385.34 419.88 385.34 419.88 453.49"
       id="polyline2350"
       transform="matrix(0.96019366,0,0,1.0650167,31.436754,-111.96531)" />
    <path
       style="fill:#74d5de;stroke-width:1.01124787"
       class="cls-13"
       d="m 316.11496,970.00647 c 5.61714,0 16.56334,-21.10865 16.56334,-62.04789 0,-29.93762 -18.91581,-49.29962 -24.53295,-78.96035 -8.64173,-45.48685 -51.43757,-179.10384 -118.25744,-179.10384 -7.68156,0 -17.99403,17.90293 -17.99403,54.78445 0,44.7307 39.06068,91.04829 39.06068,100.65474 0.0384,109.68607 87.25279,164.67289 105.1604,164.67289 z"
       id="path2352"
       inkscape:connector-curvature="0" />
    <path
       style="fill:none;stroke:#8bdde4;stroke-width:3.03374362px;stroke-linecap:round;stroke-linejoin:round"
       class="cls-15"
       d="m 316.54705,970.00647 c 0,-5.99605 -7.81598,-46.22173 -11.8776,-56.27549 -4.06161,-10.05377 -20.01043,-60.33319 -22.50693,-74.21036 -2.49651,-13.87718 -48.76825,-149.44316 -92.2266,-183.77929"
       id="path2354"
       inkscape:connector-curvature="0" />
    <line
       style="fill:none;stroke:#8bdde4;stroke-width:3.03374362px;stroke-linecap:round;stroke-linejoin:round"
       class="cls-15"
       x1="296.60385"
       y1="890.05566"
       x2="223.70598"
       y2="873.59058"
       id="line2356" />
    <line
       style="fill:none;stroke:#8bdde4;stroke-width:3.03374362px;stroke-linecap:round;stroke-linejoin:round"
       class="cls-15"
       x1="300.27179"
       y1="901.29156"
       x2="233.50954"
       y2="895.12512"
       id="line2358" />
    <line
       style="fill:none;stroke:#8bdde4;stroke-width:3.03374362px;stroke-linecap:round;stroke-linejoin:round"
       class="cls-15"
       x1="279.26273"
       y1="829.04083"
       x2="211.50186"
       y2="806.29211"
       id="line2360" />
    <line
       style="fill:none;stroke:#8bdde4;stroke-width:3.03374362px;stroke-linecap:round;stroke-linejoin:round"
       class="cls-15"
       x1="285.71527"
       y1="853.9516"
       x2="306.39783"
       y2="837.27344"
       id="line2362" />
    <line
       style="fill:none;stroke:#8bdde4;stroke-width:3.03374362px;stroke-linecap:round;stroke-linejoin:round"
       class="cls-15"
       x1="246.55855"
       y1="744.37201"
       x2="266.99149"
       y2="718.67322"
       id="line2364" />
    <line
       style="fill:none;stroke:#8bdde4;stroke-width:3.03374362px;stroke-linecap:round;stroke-linejoin:round"
       class="cls-15"
       x1="240.17326"
       y1="730.68658"
       x2="257.56238"
       y2="704.5191"
       id="line2366" />
    <rect
       style="fill:#dfdfdf;stroke-width:1.01124787"
       class="cls-3"
       x="303.19077"
       y="405.05768"
       width="210.21519"
       height="44.94371"
       id="rect2368" />
    <ellipse
       style="fill:#f3f3f3;stroke-width:1.01124787"
       class="cls-2"
       cx="498.31168"
       cy="421.88498"
       id="circle2370"
       rx="7.105433"
       ry="7.881124" />
    <line
       style="fill:none;stroke:#f3f3f3;stroke-width:4.04499149px;stroke-linecap:round;stroke-linejoin:round"
       class="cls-16"
       x1="375.7814"
       y1="421.88498"
       x2="485.22427"
       y2="421.88498"
       id="line2372" />
    <rect
       style="fill:#dfdfdf;stroke-width:1.01124787"
       class="cls-3"
       x="303.19077"
       y="481.03601"
       width="210.21519"
       height="44.94371"
       id="rect2374" />
    <ellipse
       style="fill:#f3f3f3;stroke-width:1.01124787"
       class="cls-2"
       cx="498.31168"
       cy="497.86316"
       id="circle2376"
       rx="7.105433"
       ry="7.881124" />
    <line
       style="fill:none;stroke:#f3f3f3;stroke-width:4.04499149px;stroke-linecap:round;stroke-linejoin:round"
       class="cls-16"
       x1="375.7814"
       y1="497.86316"
       x2="485.22427"
       y2="497.86316"
       id="line2378" />
    <rect
       style="fill:#dfdfdf;stroke-width:1.01124787"
       class="cls-3"
       x="303.19077"
       y="557.00372"
       width="210.21519"
       height="44.94371"
       id="rect2380" />
    <ellipse
       style="fill:#f3f3f3;stroke-width:1.01124787"
       class="cls-2"
       cx="498.31168"
       cy="573.83087"
       id="circle2382"
       rx="7.105433"
       ry="7.881124" />
    <line
       style="fill:none;stroke:#f3f3f3;stroke-width:4.04499149px;stroke-linecap:round;stroke-linejoin:round"
       class="cls-16"
       x1="375.7814"
       y1="573.83087"
       x2="485.22427"
       y2="573.83087"
       id="line2384" />
    <rect
       style="fill:#dfdfdf;stroke-width:1.01124787"
       class="cls-3"
       x="303.19077"
       y="632.98193"
       width="210.21519"
       height="44.94371"
       id="rect2386" />
    <ellipse
       style="fill:#f3f3f3;stroke-width:1.01124787"
       class="cls-2"
       cx="498.31168"
       cy="649.80914"
       id="circle2388"
       rx="7.105433"
       ry="7.881124" />
    <line
       style="fill:none;stroke:#f3f3f3;stroke-width:4.04499149px;stroke-linecap:round;stroke-linejoin:round"
       class="cls-16"
       x1="375.7814"
       y1="649.80914"
       x2="485.22427"
       y2="649.80914"
       id="line2390" />
    <rect
       style="fill:#dfdfdf;stroke-width:1.01124787"
       class="cls-3"
       x="303.19077"
       y="708.94958"
       width="210.21519"
       height="44.94371"
       id="rect2392" />
    <ellipse
       style="fill:#f3f3f3;stroke-width:1.01124787"
       class="cls-2"
       cx="498.31168"
       cy="725.78748"
       id="circle2394"
       rx="7.105433"
       ry="7.881124" />
    <line
       style="fill:none;stroke:#f3f3f3;stroke-width:4.04499149px;stroke-linecap:round;stroke-linejoin:round"
       class="cls-16"
       x1="375.7814"
       y1="725.78748"
       x2="485.22427"
       y2="725.78748"
       id="line2396" />
    <line
       style="fill:none;stroke:#f3f3f3;stroke-width:2.02249575px;stroke-linecap:round;stroke-linejoin:round"
       class="cls-17"
       x1="237.936"
       y1="437.39166"
       x2="269.46875"
       y2="437.39166"
       id="line2398" />
    <line
       style="fill:none;stroke:#f3f3f3;stroke-width:2.02249575px;stroke-linecap:round;stroke-linejoin:round"
       class="cls-17"
       x1="237.936"
       y1="446.44424"
       x2="269.46875"
       y2="446.44424"
       id="line2400" />
    <line
       style="fill:none;stroke:#f3f3f3;stroke-width:2.02249575px;stroke-linecap:round;stroke-linejoin:round"
       class="cls-17"
       x1="237.936"
       y1="498.98151"
       x2="269.46875"
       y2="498.98151"
       id="line2402" />
    <line
       style="fill:none;stroke:#f3f3f3;stroke-width:2.02249575px;stroke-linecap:round;stroke-linejoin:round"
       class="cls-17"
       x1="237.936"
       y1="508.03418"
       x2="269.46875"
       y2="508.03418"
       id="line2404" />
    <line
       style="fill:none;stroke:#f3f3f3;stroke-width:2.02249575px;stroke-linecap:round;stroke-linejoin:round"
       class="cls-17"
       x1="237.936"
       y1="573.83087"
       x2="269.46875"
       y2="573.83087"
       id="line2406" />
    <line
       style="fill:none;stroke:#f3f3f3;stroke-width:2.02249575px;stroke-linecap:round;stroke-linejoin:round"
       class="cls-17"
       x1="237.936"
       y1="582.89423"
       x2="269.46875"
       y2="582.89423"
       id="line2408" />
    <line
       style="fill:none;stroke:#f3f3f3;stroke-width:2.02249575px;stroke-linecap:round;stroke-linejoin:round"
       class="cls-17"
       x1="237.936"
       y1="646.25201"
       x2="269.46875"
       y2="646.25201"
       id="line2410" />
    <line
       style="fill:none;stroke:#f3f3f3;stroke-width:2.02249575px;stroke-linecap:round;stroke-linejoin:round"
       class="cls-17"
       x1="237.936"
       y1="655.31531"
       x2="269.46875"
       y2="655.31531"
       id="line2412" />
  </g>
</svg>
