<svg viewBox="0 0 96 30" fill="none" xmlns="http://www.w3.org/2000/svg">
<path d="M50.5951 7.53795C50.5951 8.61913 49.725 9.48971 48.6452 9.48971C47.5655 9.48971 46.696 8.61913 46.696 7.53795C46.696 6.45677 47.5358 5.58619 48.6452 5.58619C49.7556 5.61619 50.5951 6.48707 50.5951 7.53795ZM42.5573 11.4721V11.9527C42.5573 11.9527 41.628 10.7509 39.6485 10.7509C36.3798 10.7509 33.8302 13.2435 33.8302 16.6968C33.8302 20.1203 36.3499 22.6426 39.6485 22.6426C41.6579 22.6426 42.5573 21.4115 42.5573 21.4115V21.9218C42.5573 22.1621 42.7377 22.3418 42.9774 22.3418H45.4063V11.0503H42.9774C42.7377 11.0512 42.5573 11.2618 42.5573 11.4721ZM42.5573 18.7088C42.1079 19.3697 41.2079 19.9403 40.1285 19.9403C38.2092 19.9403 36.7394 18.7391 36.7394 16.6968C36.7394 14.6547 38.2092 13.4535 40.1285 13.4535C41.1783 13.4535 42.1379 14.0541 42.5573 14.6847V18.7088ZM47.206 11.0512H50.0848V22.3427H47.206V11.0512ZM90.2123 10.7506C88.2328 10.7506 87.3029 11.9524 87.3029 11.9524V5.61619H84.424V22.3427H86.8535C87.0934 22.3427 87.2729 22.1324 87.2729 21.9221V21.4118C87.2729 21.4118 88.2029 22.6429 90.1817 22.6429C93.451 22.6429 96 20.1212 96 16.6977C96 13.2741 93.451 10.7506 90.2123 10.7506ZM89.7323 19.91C88.6223 19.91 87.7529 19.34 87.3029 18.6788V14.6547C87.7529 14.0541 88.7125 13.4235 89.7323 13.4235C91.6516 13.4235 93.1211 14.6247 93.1211 16.6668C93.1211 18.7088 91.6519 19.91 89.7323 19.91ZM82.9248 15.6462V22.3727H80.0453V15.9762C80.0453 14.1147 79.4455 13.3635 77.8271 13.3635C76.9576 13.3635 76.0576 13.8141 75.4869 14.475V22.343H72.6086V11.0515H74.8871C75.127 11.0515 75.3071 11.2618 75.3071 11.4721V11.9527C76.1469 11.0815 77.2563 10.7509 78.3657 10.7509C79.6256 10.7509 80.6754 11.1118 81.5152 11.8324C82.5344 12.6732 82.9248 13.7541 82.9248 15.6462ZM65.6198 10.7506C63.6409 10.7506 62.7109 11.9524 62.7109 11.9524V5.61619H59.8321V22.3427H62.2609C62.5009 22.3427 62.681 22.1324 62.681 21.9221V21.4118C62.681 21.4118 63.611 22.6429 65.5898 22.6429C68.8591 22.6429 71.4081 20.1212 71.4081 16.6977C71.438 13.2738 68.889 10.7506 65.6198 10.7506ZM65.1398 19.91C64.0304 19.91 63.1609 19.34 62.7109 18.6788V14.6547C63.1609 14.0541 64.1206 13.4235 65.1398 13.4235C67.0597 13.4235 68.5289 14.6247 68.5289 16.6668C68.5289 18.7088 67.0597 19.91 65.1398 19.91ZM57.3427 10.7506C58.2121 10.7506 58.6621 10.9012 58.6621 10.9012V13.5735C58.6621 13.5735 56.2629 12.7626 54.7637 14.4747V22.3724H51.8842V11.0512H54.3137C54.5537 11.0512 54.7332 11.2615 54.7332 11.4718V11.9524C55.2736 11.3215 56.4433 10.7506 57.3427 10.7506ZM27.4427 21.3215C27.2929 20.9612 27.1428 20.5709 26.993 20.2403C26.7527 19.7 26.5128 19.1891 26.3033 18.7088L26.2734 18.6788C24.2037 14.1741 21.9849 9.61001 19.6453 5.1059L19.5554 4.9253C19.3093 4.45805 19.0695 3.98752 18.8361 3.51383C18.5359 2.97294 18.2363 2.40295 17.7563 1.86206C16.7967 0.660887 15.417 0 13.9478 0C12.448 0 11.0986 0.660887 10.1093 1.80176C9.65927 2.34205 9.3291 2.91264 9.0295 3.45353C8.79544 3.92692 8.55564 4.39745 8.31016 4.865L8.21998 5.0456C5.91065 9.54971 3.66154 14.1141 1.59219 18.6185L1.56193 18.6782C1.35221 19.1594 1.11193 19.6697 0.871946 20.2097C0.722145 20.5403 0.572344 20.9006 0.422543 21.2909C0.0324614 22.4018 -0.0876789 23.4529 0.0627212 24.5344C0.392583 26.7868 1.89179 28.6779 3.96144 29.5194C4.7413 29.85 5.55113 30 6.39061 30C6.63059 30 6.93019 29.97 7.17047 29.9397C8.16036 29.8197 9.1799 29.4897 10.1698 28.9191C11.3994 28.2282 12.569 27.2377 13.8884 25.7962C15.2079 27.2377 16.4075 28.2282 17.6071 28.9191C18.5973 29.4897 19.6165 29.8197 20.6061 29.9397C20.8461 29.9703 21.1463 30 21.3863 30C22.2261 30 23.0655 29.85 23.8152 29.5194C25.9148 28.6779 27.384 26.7568 27.7142 24.5344C27.9524 23.4835 27.8325 22.433 27.4427 21.3215ZM13.9175 22.8829C12.2979 20.8409 11.2481 18.9191 10.8885 17.298C10.7387 16.6071 10.7085 16.0065 10.7987 15.4659C10.8583 14.9853 11.0386 14.5647 11.2786 14.2044C11.8485 13.3941 12.8081 12.8832 13.9178 12.8832C15.0278 12.8832 16.0174 13.3638 16.5573 14.2044C16.7973 14.5647 16.977 14.9856 17.0376 15.4659C17.1271 16.0068 17.0972 16.6371 16.9474 17.298C16.5864 18.8891 15.5366 20.8112 13.9175 22.8829ZM25.883 24.2944C25.6733 25.8559 24.6235 27.2077 23.1542 27.8082C22.4346 28.1082 21.6544 28.1985 20.8752 28.1082C20.1256 28.0179 19.3754 27.7776 18.5961 27.3277C17.5163 26.7265 16.4369 25.7962 15.177 24.4144C17.1562 21.9824 18.3558 19.7597 18.8058 17.7782C19.0158 16.8471 19.0461 16.0065 18.9556 15.2253C18.8361 14.4747 18.5658 13.7838 18.1461 13.1832C17.2158 11.8315 15.6561 11.0512 13.9172 11.0512C12.1783 11.0512 10.6186 11.8621 9.68893 13.1832C9.26918 13.7838 8.99894 14.4747 8.8791 15.2253C8.75926 16.0065 8.78892 16.8771 9.0289 17.7782C9.47861 19.7597 10.7082 22.0121 12.6574 24.4444C11.4278 25.8259 10.3181 26.7571 9.23833 27.3577C8.45846 27.8082 7.70916 28.0485 6.95955 28.1382C6.15003 28.2285 5.36987 28.1082 4.68018 27.8382C3.21094 27.2377 2.16113 25.8859 1.95141 24.3244C1.86153 23.5738 1.92115 22.8232 2.22135 21.9824C2.31093 21.6818 2.46133 21.3818 2.61113 21.0215C2.82115 20.5409 3.06054 20.03 3.30082 19.5197L3.33108 19.46C5.40013 14.9853 7.61928 10.4209 9.92861 5.97678L10.0185 5.79618C10.2588 5.34619 10.4987 4.8656 10.7384 4.41501C10.9784 3.93442 11.2481 3.48383 11.5782 3.09324C12.208 2.37325 13.0475 1.98236 13.9774 1.98236C14.9074 1.98236 15.7469 2.37325 16.3766 3.09324C16.7068 3.48473 16.9764 3.93532 17.2164 4.41501C17.4567 4.8656 17.6967 5.34619 17.9361 5.79618L18.0262 5.97678C20.3004 10.4394 22.49 14.9446 24.5941 19.49V19.52C24.8344 20.0012 25.0441 20.5412 25.2841 21.0224C25.4339 21.3821 25.584 21.6821 25.6739 21.9827C25.9133 22.7626 26.0031 23.5138 25.883 24.2944Z" fill="currentColor"/>
</svg>
