<svg viewBox="0 0 96 21" fill="none" xmlns="http://www.w3.org/2000/svg">
<path d="M6.20801 20.9198C3.0708 20.9198 0 18.6546 0 13.5412C0 8.41122 3.0708 6.17933 6.20801 6.17933C7.75171 6.17933 8.96343 6.57907 9.82658 7.14537L8.88044 9.22736C8.29947 8.81096 7.43633 8.54447 6.57318 8.54447C4.6809 8.54447 2.95461 10.0435 2.95461 13.5079C2.95461 16.9723 4.7307 18.5047 6.57318 18.5047C7.43633 18.5047 8.29947 18.2382 8.88044 17.8218L9.82658 19.9538C8.93023 20.5534 7.75171 20.9198 6.20801 20.9198ZM17.0139 20.9198C13.0136 20.9198 10.8059 17.7385 10.8059 13.5412C10.8059 9.34395 12.997 6.17933 17.0139 6.17933C21.0143 6.17933 23.2219 9.3273 23.2219 13.5412C23.2219 17.7385 21.0143 20.9198 17.0139 20.9198ZM17.0139 8.46119C14.7897 8.46119 13.6941 10.4599 13.6941 13.5079C13.6941 16.556 14.7897 18.5713 17.0139 18.5713C19.2382 18.5713 20.3337 16.556 20.3337 13.5079C20.3337 10.4599 19.2382 8.46119 17.0139 8.46119ZM27.0729 3.89748C26.1267 3.89748 25.3632 3.16462 25.3632 2.2652C25.3632 1.36578 26.1267 0.632924 27.0729 0.632924C28.019 0.632924 28.7826 1.36578 28.7826 2.2652C28.7826 3.16462 28.0024 3.89748 27.0729 3.89748ZM25.6288 6.46248H28.517V20.62H25.6288V6.46248ZM39.8375 20.62V11.1761C39.8375 9.52717 38.8415 8.4945 36.8829 8.4945C35.8371 8.4945 34.8744 8.67772 34.2934 8.9109V20.6366H31.4384V7.17869C32.8493 6.59573 34.6586 6.17933 36.8663 6.17933C40.8168 6.17933 42.7257 7.91155 42.7257 10.9096V20.6366H39.8375V20.62ZM50.3114 20.9198C48.4855 20.9198 46.6762 20.4701 45.5641 19.9204V0H48.4191V6.82891C49.0997 6.51245 50.1952 6.24596 51.1745 6.24596C54.8097 6.24596 57.283 8.87759 57.283 13.2081C57.283 18.5547 54.5275 20.9198 50.3114 20.9198ZM50.6766 8.4945C49.8964 8.4945 48.9669 8.67772 48.4191 8.96087V18.2549C48.8341 18.4381 49.6474 18.6213 50.4608 18.6213C52.7348 18.6213 54.4113 17.039 54.4113 13.4246C54.4279 10.3266 52.9672 8.4945 50.6766 8.4945ZM65.0513 20.9198C61.0011 20.9198 58.9429 19.2709 58.9429 16.4727C58.9429 12.5252 63.1258 11.8257 67.3917 11.5925V10.6931C67.3917 8.9109 66.2132 8.27798 64.4039 8.27798C63.076 8.27798 61.4493 8.69437 60.5032 9.14408L59.7728 7.17869C60.9015 6.67901 62.8104 6.17933 64.7027 6.17933C68.0723 6.17933 70.1305 7.49515 70.1305 10.9929V19.9204C69.118 20.4701 67.0431 20.9198 65.0513 20.9198ZM67.4083 13.5079C64.5201 13.6578 61.6485 13.9077 61.6485 16.4227C61.6485 17.9217 62.7938 18.8378 64.9683 18.8378C65.8812 18.8378 66.9601 18.6879 67.4083 18.4714V13.5079ZM76.5709 20.9198C74.9276 20.9198 73.2013 20.4701 72.1722 19.9204L73.135 17.7219C73.8653 18.1716 75.409 18.6379 76.4879 18.6379C78.0316 18.6379 79.0608 17.8718 79.0608 16.6892C79.0608 15.4067 77.9818 14.907 76.5543 14.374C74.6621 13.6578 72.554 12.7917 72.554 10.1434C72.554 7.81161 74.3633 6.17933 77.5005 6.17933C79.2102 6.17933 80.6211 6.59573 81.617 7.17869L80.7207 9.17739C80.0899 8.77765 78.8284 8.3446 77.8159 8.3446C76.322 8.3446 75.492 9.12743 75.492 10.1601C75.492 11.4426 76.5377 11.8923 77.9321 12.4253C79.8907 13.1581 82.0652 13.9743 82.0652 16.7392C82.0486 19.2542 80.1065 20.9198 76.5709 20.9198ZM95.9751 13.4746L86.5967 14.7904C86.8789 17.3388 88.5388 18.6213 90.9124 18.6213C92.3233 18.6213 93.8504 18.2715 94.8132 17.7552L95.6431 19.9038C94.5476 20.4867 92.6553 20.9031 90.7132 20.9031C86.2647 20.9031 83.7749 18.0383 83.7749 13.5246C83.7749 9.19405 86.1817 6.16268 90.1323 6.16268C93.8006 6.16268 95.9751 8.57778 95.9751 12.392C96.0083 12.7418 96.0083 13.1082 95.9751 13.4746ZM90.1157 8.27798C87.9246 8.27798 86.4805 9.96022 86.4307 12.9083L93.2695 11.9589C93.2363 9.49385 91.9914 8.27798 90.1157 8.27798Z" fill="currentColor"/>
</svg>
