<svg viewBox="0 0 141 24" fill="none" xmlns="http://www.w3.org/2000/svg">
<path d="M11.8267 23.8123V19.1795C16.7255 19.1795 20.5042 14.3368 18.6156 9.21222C17.9198 7.28664 16.4074 5.77016 14.4869 5.07257C12.2522 4.23005 9.74782 4.53658 7.7809 5.89338C5.81399 7.25018 4.6332 9.48571 4.61911 11.8795H0C0 4.15813 7.48866 -1.94849 15.6757 0.579261C19.2467 1.70391 22.0434 4.50856 23.1644 8.08925C25.684 16.3023 19.595 23.8123 11.8267 23.8123Z" fill="currentColor"/>
<path d="M11.8799 19.2275H7.25596V14.6684H11.8799V19.2275ZM7.25596 22.8052H3.75315V19.2275H7.25596V22.8052ZM3.75315 19.2275H0.814453V16.2819H3.75315V19.2275ZM42.2151 6.95252C40.8843 6.04013 39.1329 5.54451 37.1705 5.54451H32.8982V19.2219H37.1719C39.1338 19.2219 40.8154 18.7309 42.2165 17.7491C42.9818 17.1919 43.586 16.4418 43.9679 15.5751C44.3899 14.6627 44.5981 13.5406 44.5981 12.348C44.5981 11.1554 44.3885 10.0332 43.9679 9.19124C43.5459 8.1451 42.986 7.44391 42.2151 6.95252ZM35.4205 7.8649H36.7513C38.2227 7.8649 39.4832 8.1465 40.4637 8.77729C41.5145 9.40807 42.0111 10.6077 42.0111 12.355C42.0111 14.1024 41.4484 15.371 40.4637 16.0722C39.5535 16.6354 38.362 16.9845 36.8202 16.9845H35.4205V7.8649ZM47.61 5.34035C47.2164 5.32983 46.8361 5.48272 46.5591 5.76275C46.2352 6.01329 46.0523 6.40512 46.0682 6.81453C46.0682 7.62792 46.727 8.2873 47.5396 8.2873C48.3523 8.2873 49.0111 7.62792 49.0111 6.81453C49.0215 6.42068 48.8687 6.04005 48.5891 5.76275C48.3795 5.48115 48.0264 5.34035 47.6044 5.34035H47.61ZM46.3383 9.54887H48.7902V19.1585H46.3481V9.54887H46.3383ZM57.5571 10.3937C56.8537 9.76289 56.0097 9.3419 55.1051 9.3419C53.856 9.31436 52.6557 9.82754 51.8119 10.7499C50.9369 11.6776 50.4593 12.9112 50.4812 14.1868C50.4812 15.5202 50.9032 16.7114 51.7472 17.6238C52.5913 18.5362 53.7082 18.9572 55.0404 18.9572C55.8977 18.9706 56.7353 18.6993 57.4221 18.1856V18.3954C57.4221 19.1669 57.2125 19.8034 56.7918 20.2258C56.3712 20.6482 55.8071 20.8565 55.0404 20.8565C53.915 20.8565 53.2187 20.4341 52.3789 19.243L50.6908 20.8565L50.7611 20.9269C51.1114 21.4183 51.6713 21.9126 52.3718 22.3997C53.0724 22.8869 53.9826 23.1037 55.0334 23.1037C56.5049 23.1037 57.626 22.6813 58.4659 21.7703C59.3057 20.8594 59.7967 19.7358 59.7967 18.263V9.54887H57.4178V10.3937H57.5585H57.5571ZM56.9283 16.075C56.5063 16.5664 55.9436 16.779 55.2402 16.779C54.5368 16.779 53.9741 16.5692 53.5521 16.075C53.1301 15.5808 52.9219 14.9486 52.9219 14.1812C52.9219 13.4138 53.1455 12.7746 53.5676 12.2832C53.9896 11.7918 54.5523 11.5792 55.2557 11.5792C55.959 11.5792 56.5217 11.789 56.9438 12.2832C57.3658 12.7774 57.574 13.4096 57.574 14.177C57.574 14.9443 57.3644 15.585 56.9438 16.0707L56.9283 16.075ZM62.0573 9.54747H64.5093V19.1571H62.0418V9.54887L62.0573 9.54747ZM63.2333 5.34035C62.8402 5.33059 62.4602 5.48262 62.1821 5.76097C61.904 6.03931 61.7521 6.41961 61.7619 6.81312C61.7619 7.62651 62.4207 8.2859 63.2333 8.2859C64.046 8.2859 64.7048 7.62651 64.7048 6.81312C64.7146 6.41936 64.5625 6.03883 64.2841 5.76044C64.0057 5.48206 63.6253 5.3302 63.2319 5.34035H63.2333ZM69.7452 6.95252H67.3664V9.54887H65.9596V11.7228H67.3664V15.7216C67.3664 16.9888 67.6477 17.8955 68.1373 18.3869C68.6268 18.8783 69.544 19.1585 70.7299 19.1585C71.1284 19.1701 71.5271 19.1465 71.9214 19.0881H72.0621V16.9127L71.2181 16.9831C70.6554 16.9831 70.2333 16.9127 70.0927 16.7015C69.8831 16.4917 69.8113 16.0707 69.8113 15.4343V11.7932H72.0537V9.61787H69.8183L69.7452 6.95252ZM83.3358 5.54451H85.7878V19.2219H83.3386V5.55296L83.3358 5.54451ZM110.241 15.7934C109.883 16.2081 109.484 16.5855 109.05 16.9198C108.668 17.1513 108.23 17.2727 107.784 17.2704C107.119 17.2646 106.488 16.9825 106.039 16.4917C105.548 15.9285 105.336 15.2992 105.336 14.4572C105.336 13.6152 105.546 12.9844 106.039 12.4226C106.471 11.9057 107.119 11.6203 107.791 11.651C108.562 11.651 109.401 12.1424 110.102 12.9844L111.713 11.4356C110.662 10.1022 109.331 9.47143 107.719 9.47143C106.388 9.47143 105.267 9.96283 104.287 10.9442C103.369 11.9073 102.864 13.1913 102.88 14.5219C102.88 15.9299 103.371 17.1873 104.287 18.0997C105.168 19.0589 106.417 19.5949 107.719 19.5725C109.47 19.5725 110.872 18.8009 111.852 17.3985L110.241 15.7849V15.7934ZM120.119 10.9456C119.751 10.4595 119.267 10.0725 118.713 9.81921C118.077 9.52447 117.382 9.37995 116.681 9.39681C115.351 9.39681 114.229 9.8882 113.388 10.8696C112.592 11.8897 112.171 13.1531 112.197 14.4473C112.197 15.9201 112.619 17.1127 113.527 18.0251C114.436 18.9374 115.559 19.4331 117.03 19.4331C118.641 19.4331 119.973 18.8023 121.024 17.4689L121.094 17.3985L119.484 15.8497C119.343 16.0595 119.133 16.2003 118.921 16.4129C118.722 16.6226 118.483 16.7898 118.218 16.9043C117.853 17.1041 117.441 17.2014 117.026 17.1859C116.416 17.1947 115.821 16.9962 115.338 16.6227C114.916 16.2721 114.708 15.7779 114.635 15.1499H121.08V14.2375C121.096 13.6155 121.001 12.9957 120.799 12.4071C120.696 11.8633 120.454 11.3557 120.096 10.9344L120.119 10.9456ZM114.865 13.1956C114.972 12.7711 115.19 12.3825 115.496 12.0692C115.83 11.7352 116.289 11.557 116.762 11.5778C117.324 11.5778 117.812 11.7186 118.092 12.0692C118.374 12.3508 118.514 12.7732 118.583 13.1956H114.865ZM129.438 10.3191C128.734 9.68827 127.686 9.40667 126.426 9.40667C125.655 9.42853 124.895 9.59572 124.186 9.89947C123.556 10.2501 122.92 10.7443 122.576 11.4483L124.123 12.921C124.753 11.8693 125.454 11.513 126.434 11.513C126.893 11.5009 127.341 11.6504 127.7 11.9354C128.024 12.186 128.207 12.5778 128.191 12.9872V13.4786C127.627 13.2881 127.035 13.1929 126.44 13.197C125.249 13.197 124.268 13.4786 123.497 14.0418C122.726 14.605 122.372 15.4498 122.372 16.427C122.372 17.3394 122.653 18.0405 123.282 18.6009C123.911 19.1613 124.689 19.3725 125.593 19.3725C126.498 19.3725 127.345 19.0219 128.186 18.3869V19.1585H130.567V12.9858C130.567 11.8594 130.217 10.9512 129.442 10.3205L129.438 10.3191ZM125.168 15.5104C125.45 15.3006 125.799 15.2288 126.294 15.2288C126.916 15.2497 127.53 15.368 128.115 15.5794V16.4917C127.536 17.0024 126.786 17.2776 126.014 17.2633C125.592 17.2633 125.243 17.1929 125.029 16.9817C124.815 16.7705 124.679 16.5593 124.679 16.2777C124.729 15.9637 124.907 15.6843 125.17 15.5061L125.168 15.5104ZM139.876 10.4599C139.173 9.68827 138.265 9.33345 137.074 9.33345C136.093 9.33345 135.322 9.61505 134.762 10.1783V9.61505H132.379V19.2247H134.831V13.8968C134.831 13.1928 134.972 12.5634 135.322 12.1438C135.67 11.7288 136.188 11.4963 136.729 11.513C137.216 11.4893 137.686 11.6982 137.995 12.0762C138.324 12.5246 138.497 13.0688 138.486 13.625V19.2359H140.927V13.6166C140.856 12.2837 140.506 11.2314 139.876 10.4599ZM80.3268 10.3191C79.6234 9.68827 78.5754 9.40667 77.3149 9.40667C76.5432 9.42773 75.7824 9.59445 75.0725 9.89806C74.4423 10.2487 73.8065 10.7429 73.4618 11.4469L75.0092 12.9196C75.6395 11.8679 76.34 11.5116 77.3205 11.5116C77.779 11.4995 78.2271 11.649 78.5866 11.934C78.9105 12.1846 79.0934 12.5764 79.0776 12.9858V13.4772C78.5134 13.2867 77.9215 13.1915 77.3262 13.1956C76.1351 13.1956 75.1541 13.4772 74.3832 14.0404C73.6123 14.6036 73.2578 15.4484 73.2578 16.4256C73.2578 17.3379 73.5392 18.0391 74.168 18.5995C74.7968 19.1599 75.5748 19.3711 76.4793 19.3711C77.3838 19.3711 78.2307 19.0205 79.0719 18.3855V19.1571H81.4536V12.9858C81.4536 11.8594 81.0315 10.9512 80.3282 10.3205L80.3268 10.3191ZM75.9841 15.5104C76.2655 15.3006 76.6143 15.2288 77.1095 15.2288C77.7313 15.2497 78.346 15.368 78.9313 15.5794V16.4917C78.3514 17.0024 77.6018 17.2776 76.8296 17.2633C76.4076 17.2633 76.0587 17.1929 75.8449 16.9817C75.631 16.7705 75.4946 16.5593 75.4946 16.2777C75.5993 15.9874 75.7669 15.7239 75.9855 15.5061L75.9841 15.5104ZM94.5546 19.4345C91.7197 19.4356 89.1633 17.7273 88.0777 15.1061C86.992 12.485 87.5909 9.46743 89.5951 7.46067C91.5993 5.4539 94.614 4.85324 97.2332 5.93881C99.8524 7.02439 101.56 9.58237 101.56 12.4198C101.546 16.287 98.4184 19.419 94.5546 19.4345ZM94.5546 7.79169C92.7119 7.78884 91.049 8.89752 90.3416 10.6006C89.6341 12.3036 90.0216 14.2655 91.3232 15.5711C92.6248 16.8767 94.5841 17.2687 96.2872 16.5644C97.9902 15.86 99.1015 14.198 99.1026 12.3536C99.1053 11.1439 98.6264 9.98297 97.7719 9.12744C96.9174 8.27191 95.7576 7.79225 94.549 7.7945L94.5546 7.79169Z" fill="currentColor"/>
</svg>
