<svg viewBox="0 0 105 26" fill="none" xmlns="http://www.w3.org/2000/svg">
<path d="M32.1266 10.6427C33.3231 10.6427 34.293 9.67108 34.293 8.47267C34.293 7.27407 33.3231 6.30263 32.1266 6.30263C30.9301 6.30263 29.9602 7.27407 29.9602 8.47267C29.9602 9.67108 30.9301 10.6427 32.1266 10.6427ZM103.623 18.057C103.293 17.825 103.039 17.7865 102.828 18.2372C99.1894 26.1289 93.0578 22.1908 93.6669 22.5374C95.027 21.9144 98.604 19.0416 98.0633 15.0748C97.735 12.6506 95.6573 11.5753 93.4519 11.9603C89.6022 12.6324 88.186 16.7905 88.907 20.4718C89.0332 21.1041 89.2586 21.6255 89.4838 22.1362C85.1335 25.6789 83.4059 18.9649 83.2099 18.1625C83.2021 18.1196 86.5689 15.3094 87.5053 8.61274C88.4868 1.59428 86.251 0.316338 83.9648 0.35621C79.7341 0.430024 78.5909 9.28176 80.1268 16.6591C79.9981 16.6926 79.3995 17.0247 78.4376 17.0619C77.7454 14.8808 74.7878 12.969 74.0137 13.7057C72.0765 15.5486 74.4836 19.1516 76.1773 19.4341C75.1598 25.7096 68.7969 24.1554 69.9814 16.2933C72.0534 12.44 73.6293 6.71055 73.3481 3.25172C73.2485 2.02714 72.3444 0.386472 70.2997 0.467851C66.3669 0.623658 65.9394 9.47785 66.4004 15.7621C66.3775 15.6073 66.1586 16.5255 64.547 16.9821C64.1658 14.8632 60.7589 12.7363 59.9568 13.7589C58.4555 15.6727 61.0574 19.0851 62.2898 19.3231C61.2724 25.5983 54.9096 24.0441 56.0941 16.182C58.1661 12.329 59.7418 6.59952 59.4607 3.14069C59.361 1.91591 58.4571 0.27524 56.4122 0.356414C52.4795 0.512426 52.0519 9.36662 52.513 15.6508C52.4899 15.4936 52.2659 16.4421 50.5885 16.8911C50.5324 14.142 47.1129 12.8815 46.2915 13.7587C44.8275 15.3222 46.6268 18.5304 48.2913 19.3231C47.2738 25.5983 40.9111 24.0441 42.0956 16.182C44.1676 12.329 45.7435 6.59952 45.4621 3.14069C45.3627 1.91591 44.4586 0.27524 42.4137 0.356414C38.4811 0.512426 38.1647 9.81175 38.6257 16.0958C37.3304 21.6535 32.9864 28.594 33.5508 14.6906C33.6065 13.7153 33.6673 13.345 33.1818 12.9798C32.8179 12.696 31.9906 12.8326 31.5383 12.8438C30.9887 12.8659 30.8509 13.188 30.7294 13.6748C30.4464 14.9319 30.3955 16.1505 30.3551 17.8133C30.3286 18.5911 30.2663 18.954 29.9672 20.0146C29.6684 21.075 27.9641 23.0132 27.031 22.6891C25.7365 22.2434 26.1612 18.5837 26.4038 16.0694C26.6059 14.0823 25.9586 13.19 24.3003 12.8655C23.3294 12.6629 22.7395 12.694 21.7284 12.3748C20.7722 12.073 20.556 10.2618 18.5166 10.8654C17.4012 11.1958 18.1183 13.5626 17.8502 15.3167C16.5322 23.9456 13.7898 24.1826 12.5175 19.9909C18.2475 5.93744 14.1751 0.397104 11.7913 0.397104C9.30841 0.397104 6.47027 2.10975 7.67209 13.0677C7.08772 12.897 6.90804 12.805 6.26834 12.805C2.65043 12.805 0.185547 15.7338 0.185547 19.3468C0.185547 22.9598 2.65064 25.8889 6.26854 25.8889C8.40429 25.8889 9.9038 24.9162 11.0395 23.4115C11.7804 24.4741 12.6827 25.9052 14.3327 25.8408C19.2509 25.649 20.6812 15.5463 20.85 14.9828C21.3758 15.064 21.8732 15.2175 22.3587 15.2987C23.1677 15.4204 23.2265 15.741 23.2081 16.5558C22.9937 23.4268 24.2599 25.8326 27.1319 25.8326C28.7321 25.8326 30.1583 24.2582 31.1408 23.1324C31.8746 24.6492 33.044 25.7862 34.6127 25.8324C38.414 25.9271 39.8694 19.8599 39.7367 20.6583C39.6325 21.2848 40.9699 25.7983 44.8833 25.8147C49.7308 25.8351 50.6318 20.4968 50.7392 19.6026C50.7527 19.4247 50.7586 19.4431 50.7392 19.6026L50.7355 19.6568C52.2745 19.3701 53.0685 18.5439 53.0685 18.5439C53.0685 18.5439 54.3042 25.8977 58.8816 25.8149C63.635 25.7286 64.5313 20.9031 64.6489 19.9621C64.6644 19.7388 64.6736 19.765 64.6489 19.9621C64.6483 19.9713 64.6477 19.9805 64.6471 19.9897C66.4751 19.3237 66.956 18.6553 66.956 18.6553C66.956 18.6553 67.9381 25.8629 72.769 25.9259C77.074 25.9823 78.6695 21.5676 78.6789 19.7198C79.405 19.7276 80.7481 19.2884 80.7166 19.2634C80.7166 19.2634 82.2935 25.5652 86.6971 25.8889C88.7647 26.0408 90.3157 24.7238 91.1998 24.1231C93.2775 25.8081 100.196 27.9604 104.565 20.5432C105.182 19.4787 103.856 18.2212 103.623 18.057ZM6.09397 23.4422C3.98313 23.4422 2.62961 21.4876 2.62961 19.3802C2.62961 17.2729 3.87206 15.3184 5.98289 15.3184C6.93275 15.3184 7.46117 15.423 8.20092 16.0673C8.33507 16.5967 8.71526 17.8178 8.90025 18.3723C9.14812 19.1144 9.44296 19.746 9.74025 20.4334C9.31555 22.1965 7.92323 23.4422 6.09397 23.4422ZM11.2377 16.1293C11.1499 15.9892 11.1683 16.0753 11.0701 15.943C10.6832 14.889 9.93749 12.5363 9.85112 9.8641C9.75352 6.8412 10.2566 3.29793 11.7398 3.29793C12.7448 3.29793 13.8129 10.4789 11.2375 16.1293H11.2377ZM40.9587 12.9796C40.7206 11.1858 40.7082 3.18895 42.6252 3.40916C43.6837 3.83855 41.9541 11.3845 40.9587 12.9796ZM54.9572 12.9796C54.7191 11.1858 54.7067 3.18895 56.6238 3.40916C57.6822 3.83855 55.9526 11.3845 54.9572 12.9796ZM68.8447 13.0911C68.6064 11.297 68.5941 3.30018 70.511 3.52039C71.5695 3.94978 69.8399 11.496 68.8447 13.0911ZM84.1763 2.94113C85.929 2.75915 85.8567 10.4239 82.3387 15.2629C81.885 13.5139 81.1893 3.54166 84.1763 2.94092V2.94113ZM91.5432 19.4341C90.9803 16.5865 92.4349 14.7162 93.9344 14.5111C94.4585 14.4273 95.2181 14.7673 95.3696 15.403C95.6187 16.601 95.3334 18.3781 91.9773 20.6328C91.9822 20.652 91.6688 20.0684 91.5434 19.4341H91.5432Z" fill="currentColor"/>
</svg>
