<svg viewBox="0 0 119 34" fill="none" xmlns="http://www.w3.org/2000/svg">
<path d="M6.93232 0C5.85082 0 4.44875 1.15027 3.62165 1.91597C1.80324 3.53488 0.15625 6.51171 0.15625 8.90107C0.15625 12.2962 3.03508 13.5778 3.76323 13.5778C4.0033 13.5778 4.20797 13.4536 4.20797 13.1268C4.20797 12.8707 4.04603 12.6576 3.88492 12.4387C3.21822 11.4164 3.00407 10.4408 3.00407 9.12488C3.00407 6.38135 4.26562 3.86661 5.31208 2.71587C5.50504 2.50761 5.94103 2.05774 6.07148 2.05774C6.20099 2.05774 6.23307 2.16353 6.23307 2.49051L6.11149 20.4476C6.11149 23.2548 5.30392 24.3699 5.30392 25.0309C5.30392 25.3213 5.42928 25.3967 5.66864 25.3967C6.80199 25.3967 7.93143 24.0112 8.25141 23.5059C9.24365 21.7869 9.48704 20.445 9.48704 16.5743V1.48498C9.48704 1.07654 9.3728 0.899985 8.98595 0.648156C8.42022 0.287805 7.77198 0 6.93232 0ZM39.3375 0.0501047C38.8044 0.0501047 38.5765 0.329599 38.5513 1.19444L38.4331 4.77538L35.3106 4.66686C35.1212 4.66199 35.0356 4.72207 34.9527 4.88901C34.6876 5.38768 34.548 5.77843 34.548 6.42908C34.548 6.95886 34.7875 7.01537 35.001 7.01537L38.2498 7.10893L38.2399 13.9504C38.2399 15.4014 37.3269 17.2838 35.7071 18.8493C35.7071 18.8493 35.8464 18.3767 35.8385 17.8807C35.8385 16.477 34.9377 15.2049 33.7369 14.3047L30.806 12.0932C31.4203 11.3803 32.4612 9.96645 32.4612 8.7726C32.4612 7.84697 31.881 7.45812 30.7992 7.45812C29.2725 7.45812 27.5019 8.86058 27.5019 10.9406C27.5019 11.6989 27.8382 12.3813 28.3495 12.9033C27.6436 14.2466 26.6449 16.014 25.9032 17.2727C25.3431 18.2365 24.3954 19.713 23.8348 19.713C23.4214 19.713 23.2304 19.0607 23.2304 16.5545C23.2304 14.4723 23.3779 12.2085 23.4519 10.0354C23.4519 9.53735 23.3704 9.07786 22.7257 8.62739C22.1326 8.24626 21.4002 7.71399 20.6458 7.71399C18.9686 7.71399 17.8261 9.26189 17.0423 10.7755C16.2312 12.3442 15.7926 13.6661 15.1738 15.5841L15.2421 8.98323C15.2632 8.51258 15.1447 8.32985 14.7692 8.16968C14.2821 7.96249 13.565 7.72361 12.929 7.72361C12.3975 7.72361 12.3328 7.95347 12.3328 8.51365L12.2613 16.4341L12.2532 19.489C12.2532 22.2432 12.5971 22.7024 14.2265 22.7024C15.1287 22.7024 15.4177 22.5962 15.4355 21.844C15.4603 21.3465 15.6975 20.1413 16.0184 18.9326C16.957 15.3649 18.0692 12.5432 19.9868 10.3925C20.1868 10.1837 20.3414 10.2584 20.3099 10.5544C20.3099 10.5544 20.0067 15.3826 20.0067 17.3575C20.0067 20.8698 20.5456 22.7025 22.288 22.7025C23.9981 22.7025 25.6776 20.4988 26.5944 19.0111L29.5355 14.0771C31.4413 15.7058 32.7712 16.9686 32.7712 18.5049C32.7712 19.4597 32.1705 20.3939 31.2556 20.3939C30.1122 20.3939 29.3816 19.1845 28.6093 19.1845C27.9683 19.1845 27.1456 20.4257 27.1456 21.1305C27.1456 21.7959 28.5932 22.7372 31.1907 22.7372C35.0251 22.7372 37.082 20.0979 38.3165 17.1752C38.5527 20.6441 39.9308 22.6704 42.0801 22.6704C43.4898 22.6704 45.1192 20.8839 45.8603 18.7018C45.8603 18.7018 45.9335 19.2682 46.4964 20.4288C47.2712 21.9444 48.449 22.6403 49.9121 22.6403C51.7318 22.6403 53.2882 21.5339 54.2384 19.6773C54.3825 21.0841 55.5602 22.6334 57.4542 22.6334C58.643 22.6334 59.7269 21.7198 60.4384 20.2149C60.4384 20.2149 61.3599 22.7004 64.0254 22.7004C65.5226 22.7004 67.2954 21.3093 67.7191 20.2986L67.7657 21.7685L63.8108 25.4265C62.6624 26.5446 61.4409 28.151 61.4409 29.9296C61.4409 32.1917 63.5703 33.4924 65.4442 33.4924C67.3921 33.4924 68.6846 32.2546 69.3926 31.2175C70.2836 29.8755 70.6599 27.3461 70.6599 24.8737L70.5716 21.1558C73.2371 18.2171 75.3233 14.1552 76.252 11.2812L78.2753 11.2277C78.6673 11.2013 78.6477 11.3561 78.5935 11.5852C78.2379 13.0924 77.9274 14.7993 77.9274 16.4992C77.9274 19.3075 78.5723 20.5296 79.4993 21.5284C80.3054 22.3652 81.1069 22.6475 81.9506 22.6475C83.6005 22.6475 84.6363 21.2809 84.9648 20.4193C85.7396 21.9349 86.881 22.6408 88.3437 22.6408C90.1635 22.6408 91.72 21.5343 92.6703 19.6777C92.8144 21.0846 93.9919 22.6339 95.8859 22.6339C97.3009 22.6339 98.1216 21.815 98.767 20.2721C98.78 20.7684 98.7991 21.2975 98.8137 21.7935C98.8307 22.0502 99.0352 22.2127 99.2184 22.2796C99.8199 22.5079 100.348 22.6222 100.822 22.6222C102.059 22.6222 102.327 22.3674 102.327 21.5564C102.327 20.2189 102.367 18.1056 102.745 16.4088C103.148 14.7195 103.755 12.8071 104.592 11.4765C104.668 11.339 104.853 11.3751 104.861 11.5417C104.981 14.3887 105.171 19.2083 105.916 20.4559C106.284 21.051 106.853 21.4847 107.705 21.4847C108.104 21.4847 108.594 21.314 108.719 21.2075C108.846 21.1082 108.91 20.9979 108.902 20.7933C108.902 17.1537 110.034 13.6301 111.167 11.2611C111.198 11.1908 111.286 11.1853 111.283 11.2778L111.22 13.9003C111.22 18.2074 111.53 20.9285 113.675 22.2366C114.097 22.4733 114.572 22.597 115.055 22.5956C116.153 22.5956 117.148 21.9808 117.64 20.9921C118.041 20.2238 118.416 18.745 118.416 17.9073C118.416 17.5831 118.42 17.0553 117.89 17.0553C117.599 17.0553 117.425 17.2702 117.355 17.5948C117.186 18.2984 117.048 18.9018 116.785 19.5975C116.535 20.2615 116.161 20.6482 115.718 20.6482C115.197 20.6482 114.933 20.2373 114.782 19.9834C114.118 18.967 114.064 16.6323 114.064 14.6835L114.224 9.66772C114.224 9.25275 114.052 8.7561 113.413 8.38993C112.985 8.14249 111.901 7.67671 111.237 7.67671C110.621 7.67671 110.323 8.02649 110.101 8.54001C109.684 9.46231 108.291 13.0799 107.918 16.0212C107.904 16.0987 107.808 16.1151 107.801 16.0162C107.607 13.9362 107.508 11.4302 107.51 9.73943C107.51 9.22829 107.385 8.49762 106.304 8.02412C105.779 7.80553 105.344 7.67172 104.813 7.67172C104.155 7.67172 104.013 7.99491 103.778 8.42317C103.032 9.80545 102.516 11.608 101.743 13.8817L101.755 8.67892C101.755 8.43564 101.606 8.11673 101.18 8.03088C100.124 7.78748 99.6346 7.67695 99.2183 7.67695C98.9151 7.67695 98.7485 7.91928 98.7485 8.18132L98.6918 17.0522C98.4875 18.1381 97.6597 20.7302 96.4853 20.7302C95.5213 20.7302 95.0715 19.7506 95.0715 15.6561L95.2464 9.00151C95.2464 8.58121 94.9713 8.40465 94.5704 8.22667C93.9971 7.99823 93.541 7.90752 92.9583 7.90752C92.227 7.90752 91.976 8.25861 92.124 9.10196C91.3201 8.01106 90.5164 7.40814 89.0966 7.40814C86.246 7.40814 84.0974 10.8472 84.0974 15.8448C84.0694 17.2462 84.4071 18.6391 84.4071 18.6391C84.1491 19.8022 83.5428 20.7502 82.7051 20.7502C81.6484 20.7502 80.9749 19.2517 80.9749 16.6547C80.9749 14.05 81.9641 11.1122 81.9641 10.316C81.9641 9.39024 81.3593 8.80454 80.2888 8.80454C79.7525 8.80454 77.7632 9.25714 76.7434 9.40568C76.7434 9.40568 76.8584 8.91852 76.8499 8.53549C76.8499 7.62269 76.4229 7.05064 75.3629 7.05064C74.0674 7.05064 73.1163 7.9784 73.1163 9.56122C73.1163 10.2713 73.5241 10.9284 74.0639 11.2814C73.3632 14.2126 72.2239 16.3926 70.5451 18.8279L70.6866 8.96649C70.6866 8.64591 70.6015 8.4468 69.9754 8.20304C69.6444 8.05962 69.1049 7.89399 68.4249 7.89399C67.4395 7.89399 67.5047 8.59985 67.5574 9.12832C67.1065 8.32641 66.1193 7.37454 64.5964 7.37454C60.4463 7.37454 59.1722 13.7219 59.797 18.2297C59.797 18.7793 59.2619 20.7302 58.0534 20.7302C57.0894 20.7302 56.6396 19.7506 56.6396 15.6561L56.8162 9.00151C56.8162 8.58109 56.5392 8.40453 56.1383 8.22667C55.565 7.99823 55.1105 7.90752 54.5279 7.90752C53.7964 7.90752 53.5454 8.25861 53.6934 9.10184C52.8895 8.01094 52.0842 7.40802 50.6642 7.40802C47.8137 7.40802 45.6366 10.5532 45.6366 15.5506C45.6366 17.4583 43.999 20.3694 42.8506 20.3694C42.2126 20.3694 41.5334 19.1947 41.5334 16.1937C41.5366 14.1481 41.8148 7.18421 41.8148 7.18421L45.8232 7.11903C46.0145 7.11724 46.1253 6.90757 46.1962 6.77839C46.3802 6.40379 46.4693 6.15433 46.4693 5.70612C46.4693 5.30172 46.3885 5.15402 45.8715 5.12481L41.8763 4.88426L42.0463 1.15134C42.0583 0.915658 41.9165 0.762019 41.6599 0.646968C40.8866 0.343609 39.9381 0.0502235 39.3375 0.0501047ZM51.4691 9.83121C52.5378 9.83121 53.6223 10.8088 53.6223 14.2774C53.6223 18.6445 52.036 20.6764 50.8162 20.6764C49.6727 20.6764 48.8046 19.0575 48.8046 15.8776C48.8046 12.6634 49.6523 9.83121 51.4691 9.83121ZM89.9574 9.83121C91.0262 9.83121 92.1106 10.8088 92.1106 14.2774C92.1106 18.6445 90.5244 20.6764 89.3046 20.6764C88.161 20.6764 87.2929 19.0575 87.2929 15.8776C87.293 12.6634 88.1407 9.83121 89.9574 9.83121ZM65.5459 9.85128C66.9406 9.85128 67.5576 11.2932 67.5576 14.0886C67.5576 18.3032 66.3085 20.7029 64.7915 20.7029C63.823 20.7029 62.7094 19.1079 62.7681 15.9709C62.7681 13.9652 63.4202 9.85128 65.5459 9.85128ZM67.9072 23.9502V25.6103C67.9072 31.1189 66.4437 32.0592 65.2677 32.0592C64.8221 32.0592 63.7307 31.7216 63.7307 30.3588C63.7307 28.4538 65.7165 26.2866 66.3336 25.6169L67.9072 23.9502Z" fill="currentColor"/>
</svg>
