<svg viewBox="0 0 86 24" fill="none" xmlns="http://www.w3.org/2000/svg">
<path d="M73.4135 22.4746C74.6112 22.594 75.8083 22.7223 77.0026 22.855L79.6394 16.1576L82.1457 23.4727C83.4317 23.6385 84.7171 23.8125 85.9986 23.9941L81.6045 11.1664L86 0.000884651H82.2773L82.2386 0.055733L79.8641 6.08758L77.7794 0.0017693H74.1038L77.8984 11.0791L73.4137 22.4746H73.4135ZM70.6336 22.2121V0.000884651H66.9594V21.9004C68.1849 21.9977 69.4109 22.1021 70.6336 22.2118V22.2121ZM43.033 20.9701C44.0248 20.9701 45.0156 20.9777 46.0046 20.986V12.826H50.4185V9.35106H46.0049V3.47992H51.0884V0.000884651H42.3163V20.973C42.5545 20.973 42.7939 20.9692 43.033 20.9701ZM31.6252 21.1824C32.8493 21.1376 34.0745 21.0998 35.3015 21.0691V3.48051H38.7358V0.0017693H28.1909V3.48051H31.6258V21.1824H31.6252ZM3.52461 23.5244V10.2914L7.87512 22.99C9.21302 22.8355 10.5529 22.6901 11.8965 22.5527V0.00117954H8.37107V13.7083L3.67655 0.00117954H0V24H0.0220736C1.18682 23.8343 2.35557 23.6768 3.52461 23.5244ZM24.6479 3.47963V0.00117954H15.875V22.1767C18.7938 21.9175 21.716 21.7002 24.6408 21.5247V18.0431C22.9448 18.1445 21.2523 18.2613 19.5638 18.3913V12.8274H23.9777V9.35047H19.5638V3.47963H24.6479ZM58.3701 17.8767V0H54.6798V21.1951C57.6153 21.3059 60.5394 21.4605 63.4537 21.6551V18.1713C61.7623 18.059 60.0681 17.9614 58.3701 17.8764V17.8767Z" fill="currentColor"/>
</svg>
