<svg viewBox="0 0 65 27" fill="none" xmlns="http://www.w3.org/2000/svg">
<path d="M4.56803 10.5801C4.56803 9.87724 5.14579 9.60679 6.10289 9.60679C7.475 9.60679 9.20829 10.0215 10.5805 10.7604V6.52467C9.08197 5.92992 7.60145 5.69559 6.10289 5.69559C2.4375 5.69559 0 7.6062 0 10.7966C0 15.771 6.86105 14.9781 6.86105 17.123C6.86105 17.952 6.13895 18.2224 5.12776 18.2224C3.62921 18.2224 1.71526 17.6095 0.198555 16.7805V21.0702C1.87776 21.7912 3.575 22.0975 5.12776 22.0975C8.88329 22.0975 11.4653 20.2411 11.4653 17.0148C11.4472 11.6436 4.56803 12.5988 4.56803 10.5801ZM16.7736 2.09082L12.368 3.02801L12.35 17.4653C12.35 20.133 14.3542 22.0975 17.0264 22.0975C18.507 22.0975 19.5903 21.8272 20.1861 21.5027V17.8439C19.6084 18.0782 16.7555 18.9073 16.7555 16.2397V9.84112H20.1861V6.00203H16.7555L16.7736 2.09082ZM25.8014 7.33576L25.5125 6.00203H21.6125V21.7731H26.1264V11.0849C27.1916 9.69703 28.9972 9.94935 29.557 10.1476V6.00203C28.9792 5.7857 26.8667 5.38915 25.8014 7.33576ZM30.6583 6.00203H35.1903V21.7731H30.6583V6.00203ZM30.6583 4.63218L35.1903 3.65888V0L30.6583 0.955306V4.63205V4.63218ZM44.6153 5.69559C42.8458 5.69559 41.7083 6.52467 41.0764 7.10155L40.8416 5.98403H36.8695V27L41.3833 26.0448L41.4014 20.944C42.0514 21.4126 43.0083 22.0795 44.5972 22.0795C47.8292 22.0795 50.7722 19.484 50.7722 13.7704C50.7542 8.54338 47.775 5.69559 44.6153 5.69559ZM43.532 18.1142C42.4667 18.1142 41.8346 17.7358 41.4014 17.2671L41.3833 10.5801C41.8528 10.0575 42.5028 9.69703 43.532 9.69703C45.175 9.69703 46.3125 11.5354 46.3125 13.8965C46.3125 16.3118 45.193 18.1142 43.532 18.1142ZM65 13.9507C65 9.33647 62.7611 5.69559 58.482 5.69559C54.1846 5.69559 51.5846 9.3366 51.5846 13.9147C51.5846 19.3398 54.6542 22.0795 59.0596 22.0795C61.2083 22.0795 62.8333 21.5929 64.0611 20.908V17.3031C62.8334 17.916 61.425 18.2945 59.6375 18.2945C57.8861 18.2945 56.3333 17.6816 56.1347 15.5548H64.9639C64.9639 15.3204 65 14.3832 65 13.9507ZM56.0805 12.2384C56.0805 10.2017 57.3264 9.35447 58.4639 9.35447C59.5653 9.35447 60.7389 10.2017 60.7389 12.2384H56.0805Z" fill="currentColor"/>
</svg>
