<svg width="175" height="179" viewBox="0 0 175 179" fill="none" xmlns="http://www.w3.org/2000/svg"><mask id="a" maskUnits="userSpaceOnUse" x="-1" y="-1" width="180" height="180"><path d="M178.946-.354C79.92-.354-.355 79.922-.355 178.948h179.301V-.354z" fill="#C4C4C4"/></mask><g mask="url(#a)" fill-rule="evenodd" clip-rule="evenodd" fill="currentColor"><path d="M-7.413-19.97c.264.027.533.054.807.08.269.027 1.187.114 1.313.126 7.13.687 11.317 1.681 17.821 4.853 6.453 3.147 9.277 5.475 13.962 10.643.484.533.948 1.037 1.4 1.516L31.8-.845c-1.353-1.228-2.71-2.637-4.274-4.362-4.795-5.289-7.75-7.724-14.385-10.96-6.675-3.256-11.017-4.287-18.3-4.988l-1.312-.126c-1.838-.178-3.441-.376-4.921-.63l3.98 1.94zm6.128-12.565c-5.866-.612-9.46-1.503-14.534-3.978l.613-1.257c3.608 1.76 6.428 2.689 9.941 3.294l3.98 1.941zm35.303 17.218c4.029 4.272 7.019 6.534 12.986 9.444l.612-1.256c-4.298-2.097-6.986-3.83-9.687-6.28l-3.911-1.908zm-52.9-14.914c5.302 2.586 8.988 3.443 15.34 4.06l1.313.125c7.13.687 11.317 1.68 17.821 4.853 6.453 3.147 9.277 5.475 13.963 10.643C34.35-5.262 37.304-2.827 43.94.41l.612-1.257C38.1-3.994 35.276-6.32 30.59-11.489c-4.795-5.29-7.75-7.724-14.385-10.96-6.675-3.256-11.017-4.287-18.3-4.988l-1.312-.126c-6.2-.601-9.735-1.423-14.863-3.924l-.613 1.256z"/><path d="M-13.54-7.408l.807.081 1.313.126C-4.29-6.514-.103-5.521 6.4-2.348 12.854.799 15.677 3.126 20.363 8.294c.483.533.948 1.037 1.4 1.516l3.91 1.908c-1.353-1.229-2.71-2.637-4.274-4.363-4.795-5.288-7.75-7.723-14.385-10.96C.339-6.86-4.003-7.89-11.286-8.593l-1.312-.125c-1.838-.179-3.441-.376-4.922-.631l3.98 1.94zm6.128-12.564c-5.866-.612-9.46-1.504-14.534-3.979l.613-1.256c3.608 1.76 6.428 2.688 9.941 3.294l3.98 1.94zM27.891-2.755C31.92 1.518 34.91 3.78 40.877 6.69l.611-1.257c-4.297-2.096-6.986-3.829-9.686-6.28L27.89-2.754zm-52.9-14.914c5.302 2.586 8.988 3.443 15.34 4.059l1.313.126c7.13.686 11.317 1.68 17.821 4.853 6.453 3.147 9.276 5.474 13.962 10.642 4.796 5.289 7.75 7.724 14.386 10.96l.611-1.256C31.974 8.568 29.149 6.24 24.464 1.073c-4.795-5.289-7.75-7.724-14.385-10.96-6.675-3.256-11.017-4.286-18.3-4.988L-9.534-15c-6.2-.6-9.735-1.422-14.863-3.924l-.613 1.257zM-19.669 5.16c.264.028.533.055.807.081l1.313.126c7.13.687 11.317 1.68 17.821 4.853 6.453 3.147 9.277 5.475 13.962 10.643.484.533.948 1.037 1.4 1.515l3.91 1.908c-1.353-1.229-2.71-2.637-4.274-4.362C10.475 14.634 7.52 12.2.885 8.964c-6.675-3.256-11.017-4.287-18.3-4.988l-1.312-.126c-1.838-.178-3.441-.376-4.921-.63l3.98 1.94zm6.128-12.564c-5.866-.612-9.46-1.503-14.534-3.978l.613-1.257c3.609 1.76 6.428 2.689 9.942 3.294l3.98 1.94zM21.762 9.814c4.029 4.272 7.019 6.534 12.986 9.444l.613-1.256c-4.3-2.097-6.987-3.83-9.688-6.28l-3.911-1.908zM-31.138-5.1c5.302 2.586 8.988 3.443 15.34 4.06l1.313.125c7.13.687 11.317 1.68 17.821 4.853C9.79 7.085 12.613 9.412 17.3 14.58c4.795 5.29 7.749 7.724 14.385 10.96l.613-1.256c-6.453-3.147-9.277-5.475-13.963-10.643-4.795-5.288-7.75-7.723-14.385-10.96-6.675-3.255-11.017-4.286-18.3-4.987l-1.312-.126c-6.2-.602-9.734-1.423-14.863-3.924l-.613 1.256z"/><path d="M-25.796 17.719c.264.027.533.054.807.08l1.313.127c7.13.686 11.317 1.68 17.821 4.853C.598 25.926 3.422 28.253 8.107 33.42c.484.533.948 1.037 1.4 1.516l3.91 1.907c-1.353-1.228-2.71-2.637-4.274-4.362-4.795-5.288-7.75-7.723-14.385-10.96-6.675-3.255-11.017-4.286-18.3-4.988l-1.312-.125c-1.838-.179-3.441-.376-4.921-.631l3.98 1.94zm6.128-12.565c-5.865-.612-9.46-1.503-14.534-3.978l.613-1.256c3.609 1.76 6.428 2.688 9.942 3.293l3.98 1.941zm35.303 17.219c4.029 4.271 7.019 6.534 12.985 9.443l.614-1.256c-4.3-2.096-6.987-3.829-9.688-6.28l-3.911-1.907zm-52.9-14.914c5.302 2.586 8.988 3.443 15.34 4.059l1.313.126c7.13.686 11.317 1.68 17.821 4.853 6.453 3.147 9.277 5.474 13.963 10.642 4.795 5.288 7.749 7.723 14.384 10.96l.613-1.257c-6.452-3.147-9.276-5.474-13.962-10.642-4.795-5.289-7.75-7.724-14.385-10.96-6.675-3.256-11.017-4.287-18.3-4.988l-1.312-.126c-6.2-.601-9.734-1.423-14.863-3.924l-.613 1.257zM-31.927 30.287a230.839 230.839 0 002.12.207c7.13.686 11.317 1.68 17.821 4.853 6.453 3.147 9.277 5.474 13.963 10.642.483.533.948 1.037 1.399 1.516l3.91 1.907c-1.353-1.228-2.71-2.637-4.274-4.362-4.795-5.289-7.75-7.723-14.385-10.96-6.675-3.256-11.017-4.286-18.3-4.988l-1.312-.125c-1.837-.178-3.441-.376-4.921-.63l3.98 1.94zm6.128-12.564c-5.865-.612-9.46-1.504-14.533-3.978l.612-1.257c3.609 1.76 6.428 2.689 9.942 3.294l3.98 1.94zM9.504 34.94c4.029 4.271 7.019 6.534 12.986 9.444l.612-1.257c-4.298-2.096-6.986-3.829-9.687-6.28l-3.91-1.907zm-52.9-14.914c5.302 2.586 8.988 3.443 15.34 4.059l1.313.126c7.13.687 11.318 1.68 17.822 4.852C-2.47 32.212.355 34.54 5.04 39.707c4.795 5.29 7.75 7.724 14.384 10.96l.613-1.257c-6.452-3.147-9.276-5.474-13.962-10.642-4.795-5.289-7.75-7.724-14.385-10.96-6.675-3.255-11.017-4.286-18.3-4.988l-1.312-.125c-6.2-.602-9.734-1.423-14.863-3.925l-.613 1.257z"/><path d="M-38.053 42.85a2234.048 2234.048 0 002.12.207c7.13.686 11.317 1.68 17.82 4.852 6.453 3.147 9.277 5.475 13.963 10.643.483.533.947 1.037 1.399 1.515l3.91 1.908c-1.353-1.228-2.71-2.637-4.274-4.362-4.795-5.289-7.75-7.724-14.385-10.96-6.675-3.256-11.017-4.287-18.3-4.988l-1.312-.126c-1.837-.178-3.441-.376-4.921-.63l3.98 1.94zm6.127-12.565c-5.865-.612-9.46-1.503-14.533-3.978l.612-1.256c3.609 1.76 6.428 2.688 9.942 3.293l3.98 1.941zM3.377 47.503c4.029 4.272 7.019 6.534 12.986 9.444l.612-1.256c-4.298-2.097-6.986-3.83-9.687-6.28l-3.91-1.908zm-52.9-14.914c5.302 2.586 8.989 3.443 15.34 4.06l1.313.125c7.13.687 11.318 1.681 17.822 4.853 6.452 3.147 9.276 5.474 13.962 10.642 4.795 5.29 7.75 7.724 14.385 10.96l.612-1.256C7.46 58.826 4.635 56.498-.05 51.33c-4.795-5.288-7.75-7.723-14.385-10.959-6.675-3.256-11.017-4.287-18.3-4.988l-1.312-.126c-6.2-.602-9.734-1.423-14.863-3.924l-.612 1.256z"/><path d="M-44.18 55.414a230.839 230.839 0 002.12.207c7.13.686 11.317 1.68 17.82 4.853 6.453 3.147 9.277 5.474 13.963 10.642.483.533.948 1.037 1.4 1.516l3.91 1.907c-1.354-1.228-2.71-2.637-4.275-4.362-4.795-5.289-7.75-7.724-14.385-10.96-6.675-3.256-11.017-4.286-18.3-4.988l-1.312-.126c-1.838-.178-3.44-.375-4.921-.63l3.98 1.941zm6.128-12.565c-5.866-.612-9.46-1.503-14.534-3.978l.612-1.256c3.609 1.76 6.428 2.688 9.942 3.293l3.98 1.941zM-2.75 60.067c4.029 4.272 7.019 6.534 12.986 9.445l.612-1.257c-4.298-2.096-6.986-3.829-9.687-6.28l-3.91-1.908zm-52.9-14.914c5.302 2.587 8.989 3.444 15.34 4.06l1.313.125c7.13.687 11.318 1.681 17.822 4.853 6.452 3.148 9.276 5.475 13.962 10.643 4.795 5.29 7.75 7.723 14.385 10.96l.612-1.257C1.332 71.39-1.492 69.063-6.178 63.895c-4.795-5.289-7.75-7.724-14.385-10.96-6.675-3.256-11.017-4.287-18.3-4.988l-1.312-.126c-6.2-.6-9.734-1.423-14.863-3.924l-.612 1.256zM-50.31 67.98c.265.029.534.056.807.082l1.313.126c7.131.687 11.318 1.68 17.822 4.853 6.452 3.147 9.276 5.474 13.962 10.642.483.533.948 1.038 1.4 1.516l3.91 1.908c-1.354-1.23-2.71-2.637-4.275-4.363-4.795-5.288-7.75-7.723-14.385-10.96-6.675-3.255-11.016-4.286-18.3-4.987l-1.312-.126c-1.837-.178-3.44-.376-4.921-.631l3.98 1.94zm6.129-12.563c-5.866-.612-9.46-1.504-14.534-3.978l.613-1.257c3.608 1.76 6.427 2.689 9.941 3.294l3.98 1.94zM-8.88 72.635c4.029 4.272 7.02 6.534 12.986 9.444l.612-1.256c-4.298-2.097-6.986-3.83-9.687-6.281l-3.91-1.907zm-52.9-14.914c5.302 2.586 8.989 3.443 15.34 4.059l1.313.126c7.131.687 11.318 1.68 17.822 4.853 6.452 3.147 9.276 5.474 13.962 10.642 4.795 5.289 7.75 7.724 14.385 10.96l.612-1.256c-6.452-3.147-9.276-5.475-13.962-10.643-4.795-5.288-7.75-7.723-14.384-10.96-6.676-3.255-11.017-4.286-18.3-4.988l-1.313-.125c-6.2-.602-9.734-1.423-14.862-3.925l-.613 1.257zM67.663-14.459c.264.028.533.055.806.081l1.314.126c7.13.687 11.317 1.68 17.821 4.853 6.452 3.147 9.276 5.474 13.962 10.642.483.533.948 1.037 1.399 1.516l3.911 1.908c-1.353-1.229-2.71-2.637-4.275-4.363-4.795-5.288-7.749-7.723-14.384-10.96-6.676-3.255-11.017-4.286-18.3-4.987l-1.313-.126c-1.837-.178-3.44-.376-4.92-.631l3.98 1.941zm6.128-12.564c-5.866-.612-9.46-1.504-14.534-3.978l.613-1.257c3.608 1.76 6.427 2.689 9.941 3.294l3.98 1.94zm35.302 17.218c4.029 4.272 7.019 6.534 12.986 9.444l.613-1.257c-4.299-2.096-6.987-3.829-9.688-6.28l-3.911-1.907zm-52.9-14.914c5.302 2.586 8.99 3.443 15.34 4.059l1.314.126c7.13.686 11.317 1.68 17.821 4.853 6.452 3.147 9.276 5.474 13.962 10.642 4.795 5.289 7.749 7.724 14.385 10.96l.613-1.256c-6.453-3.147-9.277-5.475-13.963-10.643-4.795-5.289-7.749-7.723-14.384-10.96-6.676-3.256-11.017-4.286-18.3-4.988l-1.313-.126c-6.2-.6-9.734-1.422-14.862-3.924l-.613 1.257z"/><path d="M61.532-1.898c.265.027.534.054.808.08.268.027 1.186.115 1.313.127 7.13.686 11.316 1.68 17.82 4.853 6.453 3.147 9.276 5.474 13.963 10.642.482.533.947 1.037 1.398 1.516l3.911 1.907c-1.353-1.228-2.71-2.637-4.273-4.362-4.796-5.289-7.75-7.724-14.385-10.96C75.41-1.35 71.07-2.38 63.787-3.083l-1.313-.126c-1.837-.178-3.441-.375-4.921-.63l3.98 1.94zm6.129-12.565c-5.867-.612-9.46-1.503-14.535-3.978l.614-1.256c3.607 1.76 6.426 2.688 9.94 3.293l3.98 1.941zm35.302 17.218c4.029 4.272 7.019 6.534 12.986 9.445l.613-1.257c-4.299-2.096-6.987-3.83-9.688-6.28l-3.911-1.908zm-52.9-14.914c5.301 2.587 8.988 3.444 15.34 4.06l1.313.125c7.13.687 11.318 1.681 17.822 4.853C90.99.026 93.813 2.354 98.5 7.522c4.794 5.288 7.75 7.723 14.385 10.96l.612-1.257c-6.453-3.147-9.276-5.474-13.962-10.642-4.795-5.289-7.75-7.724-14.385-10.96-6.675-3.256-11.017-4.287-18.3-4.988l-1.313-.126c-6.2-.601-9.734-1.423-14.862-3.924l-.612 1.256z"/><path d="M55.411 10.668c.264.027.533.055.806.081l1.314.126c7.13.687 11.317 1.68 17.821 4.853 6.452 3.147 9.276 5.474 13.962 10.642.483.533.948 1.037 1.4 1.516l3.91 1.907c-1.353-1.228-2.71-2.636-4.274-4.362-4.796-5.288-7.75-7.723-14.385-10.96-6.676-3.255-11.017-4.286-18.3-4.987l-1.313-.126c-1.837-.178-3.44-.376-4.92-.631l3.98 1.941zM61.54-1.896c-5.866-.612-9.46-1.504-14.534-3.978l.613-1.257c3.608 1.76 6.427 2.688 9.941 3.294l3.98 1.94zm35.302 17.218c4.029 4.272 7.019 6.534 12.986 9.444l.613-1.256c-4.299-2.097-6.987-3.83-9.688-6.28l-3.91-1.908zM43.941.408c5.302 2.586 8.99 3.443 15.34 4.059l1.314.126c7.13.687 11.317 1.68 17.821 4.853 6.452 3.147 9.276 5.474 13.962 10.642 4.795 5.289 7.749 7.724 14.385 10.96l.613-1.257c-6.453-3.146-9.277-5.474-13.962-10.642-4.796-5.289-7.75-7.723-14.385-10.96-6.676-3.255-11.017-4.286-18.3-4.988l-1.313-.125c-6.2-.602-9.734-1.423-14.862-3.925L43.941.408zM49.282 23.235c.265.027.534.054.808.08.268.027 1.186.114 1.313.127 7.13.686 11.316 1.68 17.82 4.852 6.453 3.147 9.276 5.474 13.963 10.642.482.533.947 1.038 1.398 1.517l3.912 1.907c-1.353-1.228-2.71-2.636-4.274-4.362-4.796-5.288-7.75-7.724-14.385-10.96-6.677-3.256-11.018-4.287-18.3-4.988l-1.313-.126c-1.837-.178-3.441-.376-4.921-.63l3.98 1.94zm6.129-12.565c-5.867-.612-9.46-1.503-14.535-3.978l.614-1.256c3.607 1.76 6.426 2.688 9.94 3.293l3.98 1.941zm35.302 17.218c4.029 4.272 7.019 6.534 12.986 9.445l.613-1.258c-4.299-2.096-6.987-3.829-9.688-6.28l-3.911-1.907zm-52.9-14.914c5.301 2.586 8.988 3.443 15.34 4.06l1.314.125c7.13.687 11.317 1.681 17.82 4.853 6.453 3.147 9.276 5.475 13.962 10.642 4.796 5.29 7.75 7.724 14.386 10.96l.612-1.255c-6.453-3.148-9.276-5.476-13.962-10.644-4.795-5.288-7.75-7.723-14.385-10.96-6.675-3.255-11.017-4.286-18.3-4.987l-1.313-.126c-6.2-.601-9.733-1.423-14.861-3.924l-.614 1.256z"/><path d="M43.152 35.796c.264.028.533.055.807.082l1.313.125c7.13.687 11.317 1.681 17.82 4.853 6.454 3.148 9.277 5.475 13.963 10.643.483.533.948 1.037 1.4 1.516l3.91 1.907c-1.353-1.228-2.71-2.637-4.274-4.362-4.796-5.289-7.75-7.724-14.385-10.96-6.676-3.256-11.017-4.287-18.3-4.988l-1.312-.126c-1.838-.177-3.441-.375-4.922-.63l3.98 1.94zm6.128-12.563c-5.866-.612-9.46-1.504-14.534-3.979l.613-1.256c3.608 1.76 6.428 2.688 9.94 3.293l3.98 1.942zM84.583 40.45c4.028 4.272 7.018 6.534 12.985 9.444l.613-1.255c-4.3-2.098-6.987-3.83-9.688-6.28l-3.91-1.909zM31.682 25.537c5.303 2.586 8.989 3.443 15.34 4.059l1.314.125c7.13.688 11.317 1.681 17.82 4.853 6.454 3.147 9.277 5.476 13.963 10.644 4.795 5.287 7.75 7.722 14.385 10.96l.613-1.258c-6.453-3.147-9.276-5.474-13.962-10.642-4.796-5.289-7.75-7.724-14.385-10.96-6.675-3.255-11.017-4.286-18.3-4.988l-1.312-.125c-6.2-.602-9.735-1.423-14.863-3.925l-.613 1.257z"/><path d="M37.025 48.361a219.537 219.537 0 002.12.208c7.13.686 11.317 1.68 17.82 4.852 6.454 3.148 9.277 5.474 13.963 10.643.483.533.948 1.037 1.4 1.516l3.91 1.907c-1.353-1.228-2.71-2.636-4.274-4.362-4.795-5.288-7.75-7.724-14.385-10.96-6.675-3.255-11.017-4.286-18.3-4.989l-1.312-.125c-1.838-.178-3.441-.376-4.922-.63l3.98 1.94zm6.128-12.563c-5.866-.613-9.46-1.505-14.534-3.979l.613-1.256c3.608 1.76 6.428 2.688 9.94 3.293l3.98 1.941zm35.303 17.218c4.028 4.272 7.018 6.534 12.985 9.444l.613-1.258c-4.3-2.096-6.987-3.828-9.688-6.28l-3.91-1.906zM25.555 38.102c5.303 2.586 8.989 3.443 15.34 4.059l1.314.125c7.13.686 11.317 1.68 17.82 4.853 6.454 3.147 9.277 5.474 13.963 10.642 4.795 5.29 7.75 7.724 14.385 10.96l.613-1.255c-6.453-3.148-9.276-5.476-13.962-10.644-4.795-5.288-7.75-7.722-14.385-10.96-6.675-3.255-11.017-4.285-18.3-4.987-.127-.013-1.045-.1-1.312-.127-6.2-.6-9.735-1.422-14.863-3.924l-.613 1.258z"/><path d="M30.898 60.923c.264.028.532.055.806.082l1.313.125c7.13.687 11.317 1.681 17.822 4.853 6.453 3.147 9.276 5.475 13.962 10.643.483.533.948 1.037 1.4 1.516l3.91 1.907c-1.354-1.228-2.71-2.637-4.275-4.362-4.794-5.289-7.75-7.724-14.384-10.96-6.675-3.256-11.017-4.287-18.3-4.988l-1.313-.126c-1.837-.178-3.44-.376-4.921-.631l3.98 1.941zm6.128-12.564c-5.867-.612-9.46-1.503-14.534-3.978l.613-1.256c3.608 1.76 6.427 2.688 9.94 3.293l3.98 1.941zm35.303 17.218c4.028 4.272 7.019 6.534 12.985 9.444l.613-1.256c-4.299-2.097-6.988-3.829-9.689-6.28l-3.91-1.908zM19.428 50.663c5.302 2.586 8.989 3.443 15.34 4.059l1.313.126c7.13.687 11.317 1.681 17.822 4.853 6.453 3.147 9.276 5.475 13.962 10.643 4.796 5.288 7.75 7.723 14.385 10.96l.612-1.257C76.41 76.9 73.587 74.573 68.9 69.405c-4.794-5.289-7.75-7.724-14.385-10.96-6.675-3.256-11.017-4.287-18.3-4.988l-1.312-.126c-6.2-.601-9.734-1.423-14.862-3.924l-.613 1.256zM24.769 73.492a228.518 228.518 0 002.12.207c7.13.686 11.317 1.681 17.82 4.853 6.454 3.147 9.277 5.474 13.963 10.642.484.533.948 1.037 1.4 1.516l3.91 1.907c-1.353-1.228-2.71-2.637-4.274-4.362-4.795-5.288-7.75-7.723-14.385-10.96-6.675-3.255-11.017-4.286-18.3-4.988l-1.313-.125c-1.837-.179-3.44-.376-4.92-.63l3.979 1.94zm6.128-12.565c-5.866-.612-9.46-1.503-14.534-3.978l.613-1.256c3.608 1.76 6.427 2.688 9.941 3.293l3.98 1.941zM66.2 78.147c4.029 4.27 7.019 6.533 12.985 9.443l.613-1.257c-4.298-2.096-6.986-3.829-9.687-6.28L66.2 78.146zM13.299 63.231c5.302 2.586 8.989 3.443 15.34 4.06.27.025 1.188.112 1.314.125 7.13.686 11.317 1.68 17.82 4.853 6.454 3.147 9.278 5.474 13.963 10.642 4.796 5.29 7.75 7.724 14.385 10.96l.613-1.257c-6.452-3.147-9.276-5.474-13.962-10.642-4.795-5.289-7.75-7.724-14.385-10.96-6.675-3.256-11.017-4.287-18.3-4.988l-1.313-.126c-6.2-.6-9.734-1.423-14.862-3.924l-.613 1.257z"/><path d="M18.64 86.055a2154.28 2154.28 0 002.12.207c7.13.687 11.317 1.68 17.82 4.853 6.454 3.147 9.278 5.475 13.963 10.643.484.533.948 1.037 1.4 1.516l3.91 1.907c-1.353-1.228-2.71-2.637-4.274-4.362-4.795-5.29-7.75-7.724-14.385-10.96-6.675-3.256-11.017-4.287-18.3-4.988l-1.313-.126c-1.837-.178-3.44-.376-4.92-.631l3.979 1.94zm6.128-12.564c-5.866-.612-9.46-1.503-14.534-3.978l.613-1.257c3.608 1.76 6.427 2.689 9.941 3.294l3.98 1.94zM60.07 90.709c4.029 4.272 7.019 6.534 12.985 9.444l.613-1.256c-4.298-2.097-6.986-3.83-9.687-6.28l-3.911-1.908zM7.17 75.795c5.302 2.586 8.989 3.443 15.34 4.059l1.314.126c7.13.687 11.317 1.68 17.82 4.853 6.454 3.147 9.278 5.475 13.963 10.642 4.796 5.289 7.75 7.724 14.385 10.96l.613-1.256c-6.452-3.147-9.276-5.474-13.962-10.642-4.795-5.29-7.75-7.724-14.385-10.96-6.675-3.256-11.017-4.287-18.3-4.988l-1.313-.126c-6.2-.601-9.734-1.423-14.862-3.924l-.613 1.256z"/><path d="M12.513 98.62a226.078 226.078 0 002.12.206c7.13.686 11.317 1.68 17.82 4.853 6.454 3.147 9.278 5.474 13.963 10.642.484.533.948 1.037 1.4 1.516l3.91 1.907c-1.353-1.228-2.71-2.637-4.274-4.362-4.795-5.289-7.75-7.723-14.385-10.96-6.676-3.256-11.017-4.286-18.3-4.988l-1.313-.126c-1.837-.178-3.44-.375-4.92-.63l3.979 1.941zm6.128-12.566c-5.866-.612-9.46-1.503-14.534-3.978l.613-1.256c3.608 1.76 6.428 2.688 9.941 3.293l3.98 1.941zm35.303 17.219c4.029 4.271 7.019 6.534 12.985 9.444l.613-1.257c-4.298-2.096-6.986-3.829-9.687-6.28l-3.911-1.907zM1.043 88.359c5.302 2.586 8.989 3.443 15.34 4.06.27.025 1.188.112 1.314.125 7.13.686 11.317 1.68 17.82 4.852 6.454 3.148 9.278 5.475 13.963 10.643 4.796 5.289 7.75 7.724 14.385 10.96l.613-1.257c-6.452-3.147-9.276-5.474-13.962-10.642-4.795-5.289-7.75-7.724-14.385-10.96-6.675-3.256-11.017-4.287-18.3-4.988l-1.312-.126c-6.2-.6-9.735-1.423-14.863-3.924l-.613 1.257z"/><path d="M6.384 111.184c.264.028.533.055.807.081l1.313.126c7.13.687 11.317 1.681 17.821 4.853 6.453 3.147 9.277 5.475 13.963 10.643.483.533.947 1.037 1.399 1.515l3.91 1.908c-1.353-1.228-2.71-2.637-4.274-4.362-4.795-5.289-7.75-7.724-14.385-10.96-6.675-3.256-11.017-4.287-18.3-4.988l-1.312-.126c-1.838-.178-3.442-.376-4.922-.631l3.98 1.941zm6.128-12.564c-5.866-.612-9.46-1.503-14.534-3.978l.613-1.257c3.608 1.76 6.428 2.689 9.941 3.294l3.98 1.94zm35.303 17.218c4.029 4.272 7.019 6.534 12.986 9.444l.612-1.256c-4.298-2.097-6.986-3.83-9.687-6.281l-3.911-1.907zm-52.9-14.914c5.302 2.586 8.988 3.443 15.34 4.059l1.313.126c7.13.687 11.317 1.681 17.822 4.853 6.452 3.147 9.276 5.474 13.962 10.642 4.795 5.289 7.749 7.724 14.384 10.96l.613-1.256c-6.452-3.147-9.276-5.475-13.962-10.643-4.795-5.288-7.75-7.723-14.385-10.959-6.675-3.256-11.017-4.287-18.3-4.988l-1.312-.126c-6.2-.602-9.735-1.423-14.863-3.924l-.613 1.256zM.255 123.75a228.519 228.519 0 002.12.207c7.13.686 11.317 1.68 17.821 4.853 6.453 3.147 9.277 5.474 13.963 10.642.483.533.948 1.037 1.399 1.516l3.91 1.907c-1.353-1.228-2.71-2.637-4.274-4.362-4.795-5.289-7.75-7.724-14.385-10.96-6.675-3.256-11.017-4.287-18.3-4.988l-1.312-.126c-1.838-.178-3.441-.375-4.922-.63l3.98 1.941zm6.128-12.565c-5.866-.612-9.46-1.503-14.534-3.978l.613-1.256c3.608 1.76 6.428 2.688 9.941 3.293l3.98 1.941zm35.303 17.218c4.029 4.272 7.019 6.534 12.986 9.445l.612-1.257c-4.298-2.096-6.986-3.829-9.687-6.28l-3.911-1.908zm-52.9-14.914c5.302 2.587 8.988 3.444 15.34 4.06l1.313.125c7.13.687 11.317 1.681 17.821 4.853 6.453 3.147 9.277 5.475 13.963 10.643 4.795 5.289 7.749 7.723 14.385 10.96l.612-1.257c-6.452-3.147-9.276-5.474-13.962-10.642-4.795-5.289-7.75-7.724-14.385-10.96-6.675-3.256-11.017-4.287-18.3-4.988l-1.312-.126c-6.2-.601-9.735-1.423-14.863-3.924l-.613 1.256z"/><path d="M-5.874 136.313c.264.028.533.055.807.081l1.313.126c7.13.687 11.317 1.681 17.821 4.853 6.453 3.147 9.276 5.475 13.962 10.643.484.533.948 1.037 1.4 1.515l3.91 1.908c-1.354-1.229-2.71-2.637-4.274-4.362-4.795-5.289-7.75-7.724-14.385-10.96-6.675-3.256-11.017-4.287-18.3-4.988l-1.312-.126c-1.838-.178-3.441-.376-4.922-.631l3.98 1.941zm6.128-12.564c-5.866-.612-9.46-1.504-14.534-3.978l.613-1.257c3.608 1.76 6.428 2.689 9.942 3.294l3.98 1.941zm35.302 17.218c4.03 4.272 7.02 6.534 12.986 9.444l.612-1.256c-4.298-2.097-6.985-3.83-9.686-6.281l-3.912-1.907zm-52.9-14.914c5.303 2.586 8.99 3.443 15.34 4.059l1.314.126c7.13.687 11.317 1.681 17.821 4.853 6.453 3.147 9.277 5.474 13.963 10.642 4.795 5.289 7.748 7.724 14.384 10.96l.612-1.256c-6.452-3.147-9.276-5.475-13.962-10.643-4.794-5.288-7.749-7.723-14.384-10.96-6.675-3.255-11.017-4.286-18.3-4.988l-1.312-.125c-6.2-.602-9.734-1.423-14.863-3.925l-.613 1.257z"/><path d="M-12 148.877l.806.081 1.313.126c7.13.686 11.317 1.68 17.821 4.853 6.453 3.147 9.277 5.474 13.962 10.642.484.533.948 1.037 1.4 1.516l3.91 1.907c-1.353-1.228-2.71-2.637-4.274-4.362-4.795-5.289-7.75-7.724-14.385-10.96-6.675-3.256-11.017-4.287-18.3-4.988l-1.312-.126c-1.838-.178-3.441-.376-4.921-.63l3.98 1.941zm6.127-12.565c-5.865-.612-9.46-1.503-14.534-3.978l.613-1.256c3.609 1.76 6.428 2.688 9.942 3.293l3.98 1.941zM29.43 153.53c4.029 4.272 7.019 6.534 12.986 9.444l.613-1.256c-4.3-2.096-6.987-3.829-9.688-6.28l-3.911-1.908zm-52.9-14.914c5.302 2.587 8.988 3.443 15.34 4.059.269.027 1.187.114 1.313.126 7.13.687 11.317 1.681 17.821 4.853 6.453 3.147 9.277 5.475 13.962 10.643 4.796 5.288 7.75 7.723 14.386 10.96l.613-1.257c-6.453-3.147-9.277-5.474-13.963-10.642-4.795-5.289-7.75-7.724-14.385-10.96-6.675-3.256-11.017-4.287-18.3-4.988l-1.312-.126c-6.2-.601-9.734-1.423-14.863-3.924l-.613 1.256zM-18.128 161.442c.264.028.533.055.807.081l1.313.126c7.13.687 11.317 1.681 17.821 4.853 6.453 3.147 9.276 5.474 13.962 10.642.484.533.948 1.037 1.4 1.516l3.91 1.908c-1.353-1.229-2.71-2.637-4.274-4.363-4.795-5.288-7.75-7.723-14.385-10.959-6.675-3.256-11.017-4.287-18.3-4.988l-1.312-.126c-1.838-.178-3.441-.376-4.922-.631l3.98 1.941zM-12 148.878c-5.866-.612-9.46-1.504-14.534-3.978l.613-1.257c3.608 1.76 6.428 2.688 9.942 3.294l3.98 1.941zm35.303 17.218c4.028 4.272 7.018 6.534 12.985 9.444l.614-1.257c-4.3-2.096-6.988-3.829-9.688-6.28l-3.911-1.907zm-52.9-14.914c5.302 2.586 8.988 3.443 15.34 4.059l1.313.126c7.13.686 11.317 1.681 17.821 4.853 6.453 3.147 9.276 5.474 13.962 10.642 4.796 5.289 7.75 7.724 14.386 10.96l.612-1.256c-6.453-3.147-9.276-5.475-13.962-10.643-4.795-5.288-7.75-7.723-14.385-10.96-6.675-3.255-11.017-4.286-18.3-4.988l-1.312-.125c-6.2-.602-9.735-1.423-14.863-3.925l-.613 1.257z"/><path d="M-24.257 174.005c.264.028.533.055.807.082l1.313.125c7.13.687 11.317 1.681 17.821 4.853 6.453 3.148 9.277 5.475 13.962 10.643.484.533.948 1.037 1.4 1.516l3.91 1.907c-1.353-1.228-2.71-2.637-4.274-4.362-4.795-5.289-7.75-7.724-14.385-10.96-6.675-3.256-11.017-4.287-18.3-4.988l-1.312-.126c-1.838-.178-3.441-.376-4.921-.631l3.98 1.941zm6.128-12.564c-5.865-.612-9.46-1.503-14.534-3.978l.613-1.256c3.609 1.76 6.428 2.688 9.942 3.293l3.98 1.941zm35.303 17.218c4.029 4.272 7.019 6.534 12.986 9.444l.613-1.256c-4.3-2.097-6.987-3.829-9.688-6.28l-3.911-1.908zm-52.9-14.914c5.302 2.586 8.988 3.443 15.34 4.059l1.313.126c7.13.687 11.317 1.681 17.821 4.853 6.453 3.147 9.277 5.475 13.963 10.643 4.795 5.288 7.749 7.723 14.384 10.96l.613-1.257c-6.452-3.147-9.276-5.474-13.962-10.642-4.795-5.289-7.75-7.724-14.385-10.96-6.675-3.256-11.017-4.287-18.3-4.988l-1.312-.126c-6.2-.601-9.734-1.423-14.863-3.924l-.613 1.256z"/><path d="M-30.384 186.57a230.839 230.839 0 002.12.207c7.13.687 11.317 1.681 17.822 4.853 6.452 3.147 9.276 5.474 13.962 10.642.483.533.947 1.037 1.399 1.516l3.91 1.908c-1.353-1.229-2.71-2.637-4.274-4.363-4.795-5.288-7.75-7.723-14.385-10.96-6.675-3.255-11.017-4.286-18.3-4.988l-1.312-.125c-1.838-.179-3.441-.376-4.921-.631l3.98 1.941zm6.128-12.564c-5.865-.612-9.46-1.504-14.533-3.978l.612-1.257c3.609 1.76 6.428 2.688 9.942 3.294l3.98 1.941zm35.303 17.218c4.029 4.272 7.019 6.534 12.985 9.444l.613-1.257c-4.298-2.096-6.986-3.829-9.687-6.28l-3.911-1.907zm-52.9-14.914c5.302 2.586 8.988 3.443 15.34 4.059l1.313.126c7.13.686 11.317 1.68 17.821 4.853 6.453 3.147 9.277 5.474 13.963 10.642 4.795 5.289 7.75 7.724 14.384 10.96l.613-1.256c-6.452-3.148-9.276-5.475-13.962-10.643-4.795-5.289-7.75-7.723-14.385-10.96-6.675-3.256-11.017-4.286-18.3-4.988l-1.312-.126c-6.2-.601-9.734-1.422-14.863-3.924l-.612 1.257zM142.747-8.947c.264.027.533.054.806.08l1.313.127c7.131.686 11.318 1.68 17.822 4.853 6.452 3.147 9.276 5.474 13.962 10.642.483.533.948 1.037 1.399 1.516l3.911 1.907c-1.353-1.228-2.71-2.637-4.275-4.362-4.795-5.289-7.749-7.723-14.384-10.96-6.676-3.255-11.017-4.286-18.301-4.988l-1.312-.126c-1.837-.178-3.441-.375-4.921-.63l3.98 1.94zm6.128-12.565c-5.866-.612-9.46-1.503-14.534-3.978l.613-1.256c3.608 1.76 6.427 2.688 9.941 3.293l3.98 1.941zm35.302 17.219c4.029 4.271 7.019 6.534 12.986 9.444l.613-1.257c-4.299-2.096-6.987-3.829-9.688-6.28l-3.911-1.907zm-52.9-14.915c5.302 2.587 8.989 3.444 15.34 4.06l1.314.126c7.13.686 11.317 1.68 17.821 4.853 6.452 3.147 9.276 5.474 13.962 10.642 4.795 5.289 7.749 7.724 14.385 10.96l.613-1.257c-6.453-3.147-9.277-5.474-13.963-10.642-4.795-5.289-7.749-7.724-14.384-10.96-6.676-3.256-11.017-4.287-18.3-4.988l-1.313-.126c-6.2-.601-9.734-1.423-14.862-3.924l-.613 1.256z"/><path d="M136.615 3.613c.264.028.533.055.807.081.269.027 1.187.114 1.313.126 7.13.687 11.317 1.681 17.821 4.853 6.452 3.147 9.276 5.475 13.962 10.643.483.533.948 1.037 1.399 1.516l3.911 1.907c-1.353-1.228-2.71-2.637-4.274-4.362-4.796-5.289-7.75-7.724-14.385-10.96-6.676-3.256-11.017-4.287-18.3-4.988l-1.313-.126c-1.837-.178-3.441-.376-4.921-.63l3.98 1.94zm6.128-12.564c-5.866-.612-9.46-1.503-14.534-3.978l.613-1.256c3.608 1.76 6.427 2.688 9.941 3.293l3.98 1.94zm35.302 17.218c4.029 4.272 7.019 6.534 12.986 9.444l.613-1.256c-4.299-2.097-6.987-3.83-9.688-6.28l-3.911-1.908zm-52.9-14.914c5.302 2.586 8.989 3.443 15.341 4.06l1.313.125c7.13.687 11.317 1.68 17.821 4.853 6.453 3.147 9.276 5.475 13.962 10.643 4.795 5.288 7.75 7.723 14.385 10.96l.613-1.257c-6.453-3.147-9.277-5.474-13.962-10.642-4.796-5.29-7.75-7.724-14.385-10.96-6.676-3.256-11.017-4.287-18.3-4.988l-1.312-.126c-6.2-.601-9.735-1.423-14.863-3.924l-.613 1.256zM130.488 16.182c.264.027.533.054.807.08l1.313.127c7.13.686 11.317 1.68 17.821 4.853 6.453 3.147 9.276 5.474 13.962 10.642.483.533.948 1.037 1.399 1.515l3.911 1.908c-1.353-1.228-2.71-2.637-4.274-4.362-4.796-5.289-7.75-7.724-14.385-10.96-6.676-3.256-11.017-4.287-18.3-4.988l-1.312-.126c-1.838-.178-3.442-.375-4.922-.63l3.98 1.94zm6.128-12.565c-5.866-.612-9.46-1.503-14.534-3.978l.613-1.256c3.608 1.76 6.427 2.688 9.941 3.293l3.98 1.941zm35.303 17.218c4.028 4.272 7.018 6.534 12.985 9.444l.613-1.256c-4.299-2.096-6.987-3.83-9.688-6.28l-3.91-1.907zM119.018 5.921c5.302 2.587 8.989 3.444 15.341 4.06l1.313.126c7.13.686 11.317 1.68 17.821 4.852 6.453 3.148 9.276 5.475 13.962 10.643 4.795 5.288 7.75 7.723 14.385 10.96l.613-1.257c-6.453-3.147-9.276-5.475-13.962-10.642-4.796-5.289-7.75-7.724-14.385-10.96-6.676-3.256-11.017-4.287-18.3-4.988l-1.312-.126c-6.2-.601-9.735-1.423-14.863-3.924l-.613 1.256z"/><path d="M124.361 28.744c.264.028.533.055.807.081l1.313.126c7.13.686 11.317 1.68 17.821 4.853 6.453 3.147 9.276 5.474 13.962 10.642.483.533.948 1.037 1.4 1.516l3.91 1.907c-1.353-1.228-2.71-2.637-4.274-4.362-4.796-5.289-7.75-7.723-14.385-10.96-6.676-3.256-11.017-4.286-18.3-4.987l-1.312-.126c-1.838-.178-3.441-.376-4.922-.63l3.98 1.94zm6.128-12.564c-5.866-.612-9.46-1.503-14.534-3.978l.613-1.257c3.608 1.76 6.428 2.689 9.941 3.294l3.98 1.94zm35.303 17.218c4.028 4.271 7.018 6.534 12.985 9.444l.613-1.257c-4.299-2.096-6.987-3.829-9.688-6.28l-3.91-1.907zm-52.901-14.914c5.303 2.586 8.989 3.443 15.341 4.059l1.313.126c7.13.687 11.317 1.68 17.821 4.853 6.453 3.147 9.276 5.474 13.962 10.642 4.795 5.29 7.75 7.724 14.385 10.96l.613-1.257c-6.453-3.147-9.276-5.474-13.962-10.642-4.796-5.289-7.75-7.724-14.385-10.96-6.676-3.255-11.017-4.286-18.3-4.988l-1.312-.125c-6.2-.602-9.735-1.423-14.863-3.925l-.613 1.257z"/><path d="M118.232 41.309a2087.54 2087.54 0 002.12.207c7.13.686 11.317 1.68 17.821 4.852 6.453 3.148 9.276 5.475 13.962 10.643.483.533.948 1.037 1.4 1.515l3.91 1.908c-1.353-1.227-2.71-2.636-4.274-4.361-4.795-5.29-7.75-7.724-14.385-10.96-6.675-3.257-11.017-4.288-18.3-4.989l-1.312-.126c-1.838-.177-3.441-.375-4.922-.63l3.98 1.94zm6.128-12.565c-5.866-.612-9.46-1.503-14.534-3.978l.613-1.256c3.608 1.76 6.428 2.688 9.941 3.293l3.98 1.941zm35.303 17.218c4.028 4.272 7.019 6.534 12.985 9.444l.613-1.255c-4.298-2.098-6.987-3.83-9.688-6.282l-3.91-1.907zm-52.901-14.914c5.303 2.587 8.989 3.444 15.341 4.06l1.313.126c7.13.686 11.317 1.68 17.821 4.852 6.453 3.148 9.276 5.474 13.962 10.642 4.796 5.29 7.75 7.724 14.385 10.96l.613-1.256c-6.453-3.147-9.276-5.474-13.962-10.643-4.795-5.288-7.75-7.723-14.385-10.959-6.675-3.255-11.017-4.286-18.3-4.987-.127-.014-1.045-.1-1.312-.127-6.2-.602-9.735-1.422-14.863-3.924l-.613 1.256z"/><path d="M112.101 53.873a219.537 219.537 0 002.12.207c7.131.686 11.317 1.68 17.821 4.853 6.453 3.147 9.277 5.474 13.962 10.642.484.533.948 1.037 1.4 1.516l3.911 1.907c-1.354-1.228-2.711-2.637-4.275-4.362-4.795-5.289-7.75-7.724-14.385-10.96-6.675-3.256-11.017-4.286-18.3-4.988l-1.312-.126c-1.838-.178-3.441-.375-4.921-.63l3.979 1.941zm6.128-12.565c-5.866-.612-9.46-1.503-14.534-3.978l.613-1.256c3.609 1.76 6.428 2.688 9.942 3.293l3.979 1.941zm35.303 17.218c4.029 4.272 7.019 6.534 12.985 9.445l.613-1.257c-4.298-2.096-6.986-3.829-9.687-6.28l-3.911-1.908zm-52.901-14.914c5.303 2.587 8.989 3.444 15.341 4.06l1.313.125c7.131.687 11.317 1.681 17.821 4.853 6.453 3.148 9.277 5.475 13.962 10.643 4.796 5.29 7.75 7.723 14.385 10.96l.613-1.257c-6.452-3.147-9.276-5.474-13.962-10.642-4.795-5.289-7.75-7.724-14.385-10.96-6.675-3.256-11.017-4.287-18.3-4.988l-1.312-.126c-6.2-.6-9.734-1.423-14.863-3.924l-.613 1.256zM105.976 66.44a2087.54 2087.54 0 002.12.207c7.131.687 11.317 1.68 17.821 4.853 6.453 3.147 9.277 5.474 13.962 10.642.484.533.948 1.037 1.4 1.516l3.911 1.908c-1.354-1.23-2.711-2.637-4.275-4.363-4.795-5.288-7.75-7.723-14.385-10.96-6.675-3.255-11.017-4.286-18.3-4.987l-1.312-.126c-1.838-.178-3.441-.376-4.921-.631l3.979 1.94zm6.128-12.564c-5.866-.612-9.46-1.504-14.534-3.978l.613-1.257c3.609 1.76 6.428 2.689 9.942 3.294l3.979 1.94zm35.303 17.218c4.029 4.272 7.019 6.534 12.985 9.444l.613-1.256c-4.298-2.097-6.986-3.83-9.687-6.281l-3.911-1.907zM94.506 56.18c5.303 2.586 8.989 3.443 15.341 4.059l1.313.126c7.131.687 11.317 1.68 17.821 4.853 6.453 3.147 9.277 5.474 13.962 10.642 4.796 5.289 7.75 7.724 14.385 10.96l.613-1.256c-6.452-3.147-9.276-5.475-13.962-10.643-4.795-5.288-7.75-7.723-14.385-10.96-6.675-3.255-11.017-4.286-18.3-4.988l-1.312-.125c-6.2-.602-9.734-1.423-14.863-3.925l-.613 1.257z"/><path d="M99.847 79.002l.807.081 1.313.126c7.131.686 11.317 1.68 17.821 4.853 6.453 3.147 9.277 5.474 13.962 10.642.484.533.948 1.037 1.4 1.516l3.911 1.907c-1.354-1.228-2.711-2.637-4.275-4.362-4.795-5.289-7.749-7.724-14.385-10.96-6.675-3.256-11.017-4.287-18.3-4.988l-1.312-.126c-1.838-.178-3.441-.376-4.921-.63l3.979 1.941zm6.128-12.565c-5.865-.612-9.46-1.503-14.534-3.978l.613-1.256c3.609 1.76 6.428 2.688 9.942 3.293l3.979 1.941zm35.303 17.218c4.029 4.272 7.019 6.534 12.985 9.444l.613-1.256c-4.298-2.096-6.986-3.829-9.687-6.28l-3.911-1.908zM88.377 68.741c5.303 2.587 8.989 3.443 15.341 4.06l1.313.125c7.131.687 11.317 1.681 17.821 4.853 6.453 3.147 9.277 5.475 13.962 10.643 4.796 5.288 7.75 7.723 14.385 10.96l.613-1.257c-6.452-3.147-9.276-5.474-13.962-10.642-4.795-5.289-7.749-7.724-14.385-10.96-6.675-3.256-11.017-4.287-18.3-4.988l-1.312-.126c-6.2-.6-9.734-1.423-14.863-3.924l-.613 1.256z"/><path d="M93.718 91.567a2087.54 2087.54 0 002.12.207c7.131.687 11.317 1.68 17.821 4.853 6.453 3.147 9.277 5.474 13.963 10.642.483.533.947 1.037 1.399 1.516l3.911 1.908c-1.354-1.229-2.711-2.637-4.275-4.363-4.795-5.288-7.749-7.723-14.385-10.96-6.675-3.255-11.017-4.286-18.3-4.987l-1.312-.126c-1.838-.178-3.44-.376-4.92-.631l3.978 1.94zm6.128-12.564c-5.865-.612-9.46-1.504-14.534-3.978l.613-1.257c3.609 1.76 6.428 2.688 9.942 3.294l3.98 1.94zM135.15 96.22c4.029 4.272 7.019 6.534 12.985 9.444l.613-1.257c-4.298-2.096-6.986-3.829-9.687-6.28l-3.911-1.907zM82.248 81.307c5.303 2.586 8.99 3.443 15.341 4.059l1.313.126c7.131.686 11.317 1.68 17.821 4.853 6.453 3.147 9.277 5.474 13.963 10.642 4.795 5.289 7.749 7.724 14.384 10.96l.613-1.256c-6.452-3.147-9.276-5.475-13.962-10.643-4.795-5.288-7.749-7.723-14.385-10.96-6.675-3.255-11.017-4.286-18.3-4.988l-1.312-.125c-6.2-.602-9.734-1.423-14.863-3.925l-.613 1.257z"/><path d="M87.595 104.129l.807.081 1.313.126c7.131.686 11.317 1.68 17.821 4.852 6.453 3.148 9.277 5.475 13.962 10.643.484.533.948 1.037 1.4 1.516l3.911 1.907c-1.354-1.228-2.711-2.637-4.275-4.362-4.795-5.289-7.749-7.724-14.385-10.96-6.675-3.256-11.017-4.287-18.3-4.988l-1.312-.126c-1.838-.178-3.441-.376-4.921-.63l3.979 1.941zm6.128-12.565c-5.865-.612-9.46-1.503-14.534-3.978l.613-1.256c3.609 1.76 6.428 2.688 9.942 3.293l3.979 1.941zm35.303 17.218c4.029 4.272 7.019 6.534 12.985 9.444l.613-1.256c-4.298-2.097-6.986-3.829-9.687-6.28l-3.911-1.908zM76.125 93.868c5.303 2.586 8.989 3.443 15.341 4.06l1.313.125c7.131.687 11.317 1.681 17.821 4.853 6.453 3.147 9.277 5.475 13.963 10.643 4.795 5.288 7.749 7.723 14.384 10.96l.613-1.257c-6.452-3.147-9.276-5.474-13.962-10.642-4.795-5.289-7.749-7.724-14.385-10.96-6.675-3.256-11.017-4.287-18.3-4.988l-1.312-.126c-6.2-.6-9.734-1.423-14.863-3.924l-.613 1.256zM81.461 116.695l.807.081 1.313.126c7.131.687 11.318 1.681 17.822 4.853 6.452 3.147 9.276 5.474 13.962 10.642.483.533.948 1.037 1.399 1.516l3.911 1.908c-1.354-1.229-2.71-2.637-4.275-4.363-4.795-5.288-7.749-7.723-14.385-10.96-6.675-3.255-11.017-4.286-18.3-4.988l-1.312-.125c-1.837-.179-3.44-.376-4.92-.631l3.978 1.941zm6.13-12.564c-5.867-.612-9.46-1.504-14.535-3.978l.612-1.257c3.61 1.76 6.428 2.688 9.942 3.294l3.98 1.941zm35.301 17.218c4.029 4.272 7.019 6.534 12.986 9.444l.612-1.257c-4.298-2.096-6.986-3.829-9.687-6.28l-3.911-1.907zm-52.9-14.914c5.302 2.586 8.99 3.443 15.34 4.059l1.313.126c7.131.686 11.318 1.68 17.822 4.853 6.452 3.147 9.276 5.474 13.962 10.642 4.795 5.289 7.749 7.724 14.385 10.96l.612-1.256c-6.452-3.148-9.276-5.475-13.962-10.643-4.795-5.289-7.749-7.723-14.385-10.96-6.675-3.256-11.016-4.286-18.3-4.988l-1.312-.126c-6.2-.601-9.734-1.422-14.863-3.924l-.612 1.257zM75.333 129.266c.264.028.533.055.806.081l1.313.126c7.131.687 11.318 1.681 17.822 4.853 6.452 3.147 9.276 5.475 13.962 10.643.483.533.948 1.037 1.399 1.515l3.911 1.908c-1.354-1.228-2.71-2.637-4.275-4.362-4.795-5.289-7.749-7.724-14.385-10.96-6.675-3.256-11.016-4.287-18.3-4.988l-1.312-.126c-1.837-.178-3.44-.376-4.92-.631l3.98 1.941zm6.128-12.564c-5.866-.612-9.46-1.503-14.534-3.978l.613-1.257c3.608 1.76 6.427 2.689 9.941 3.294l3.98 1.941zm35.302 17.218c4.029 4.272 7.019 6.534 12.986 9.444l.613-1.256c-4.299-2.097-6.987-3.829-9.688-6.281l-3.911-1.907zm-52.9-14.914c5.302 2.586 8.99 3.443 15.34 4.059l1.313.126c7.131.687 11.318 1.681 17.822 4.853 6.452 3.147 9.276 5.474 13.962 10.642 4.795 5.289 7.749 7.724 14.385 10.96l.612-1.256c-6.452-3.147-9.276-5.475-13.962-10.643-4.795-5.288-7.749-7.723-14.384-10.959-6.676-3.256-11.017-4.287-18.3-4.988l-1.313-.126c-6.2-.602-9.734-1.423-14.862-3.924l-.613 1.256z"/><path d="M69.204 141.826a243.037 243.037 0 002.12.207c7.13.686 11.317 1.681 17.821 4.853 6.452 3.147 9.276 5.474 13.962 10.642.483.533.948 1.037 1.399 1.516l3.911 1.907c-1.353-1.228-2.71-2.637-4.275-4.362-4.795-5.289-7.749-7.723-14.384-10.96-6.676-3.256-11.017-4.286-18.3-4.988l-1.313-.126c-1.837-.178-3.44-.375-4.92-.63l3.98 1.941zm6.128-12.565c-5.866-.612-9.46-1.503-14.534-3.978l.613-1.256c3.608 1.76 6.427 2.688 9.941 3.293l3.98 1.941zm35.302 17.219c4.029 4.271 7.019 6.534 12.986 9.444l.613-1.257c-4.299-2.096-6.987-3.829-9.688-6.28l-3.911-1.907zm-52.9-14.914c5.302 2.586 8.99 3.443 15.34 4.059l1.314.126c7.13.686 11.317 1.68 17.821 4.853 6.452 3.147 9.276 5.474 13.962 10.642 4.795 5.289 7.749 7.724 14.385 10.96l.613-1.257c-6.453-3.147-9.277-5.474-13.962-10.642-4.796-5.289-7.75-7.724-14.385-10.96-6.676-3.256-11.017-4.287-18.3-4.988l-1.313-.126c-6.2-.601-9.734-1.423-14.862-3.924l-.613 1.257z"/><path d="M63.08 154.387c.263.028.532.055.805.081.27.027 1.188.114 1.314.126 7.13.687 11.317 1.681 17.821 4.853 6.452 3.147 9.276 5.475 13.962 10.643.483.533.948 1.037 1.4 1.516l3.91 1.907c-1.353-1.228-2.71-2.637-4.275-4.362-4.795-5.289-7.749-7.724-14.384-10.96-6.676-3.256-11.017-4.287-18.3-4.988l-1.313-.126c-1.837-.178-3.44-.376-4.92-.631l3.98 1.941zm6.127-12.564c-5.866-.612-9.46-1.503-14.534-3.978l.613-1.257c3.608 1.76 6.427 2.689 9.941 3.294l3.98 1.941zm35.302 17.218c4.029 4.272 7.019 6.534 12.986 9.444l.613-1.256c-4.299-2.097-6.987-3.829-9.688-6.28l-3.911-1.908zm-52.9-14.914c5.302 2.586 8.99 3.443 15.34 4.059l1.314.126c7.13.687 11.317 1.681 17.821 4.853 6.452 3.147 9.276 5.475 13.962 10.643 4.795 5.288 7.749 7.723 14.385 10.959l.613-1.256c-6.453-3.147-9.277-5.474-13.962-10.642-4.796-5.289-7.75-7.724-14.385-10.96-6.676-3.256-11.017-4.287-18.3-4.988l-1.313-.126c-6.2-.601-9.734-1.423-14.862-3.924l-.613 1.256z"/><path d="M56.949 166.951a219.537 219.537 0 002.12.207c7.13.686 11.316 1.681 17.82 4.853 6.453 3.147 9.276 5.474 13.963 10.642.483.533.947 1.037 1.398 1.516l3.912 1.907c-1.354-1.228-2.71-2.637-4.275-4.362-4.796-5.289-7.75-7.723-14.385-10.96-6.675-3.256-11.016-4.286-18.3-4.988l-1.313-.126c-1.837-.178-3.44-.375-4.92-.63l3.98 1.941zm6.128-12.565c-5.866-.612-9.46-1.503-14.535-3.978l.614-1.256c3.608 1.76 6.427 2.688 9.94 3.293l3.98 1.941zm35.302 17.219c4.029 4.271 7.019 6.534 12.986 9.444l.613-1.257c-4.299-2.096-6.987-3.829-9.688-6.28l-3.912-1.907zm-52.9-14.914c5.302 2.586 8.989 3.443 15.34 4.059l1.313.126c7.13.686 11.318 1.68 17.822 4.853 6.452 3.147 9.276 5.474 13.962 10.642 4.794 5.289 7.75 7.724 14.385 10.96l.613-1.257c-6.453-3.147-9.278-5.474-13.963-10.642-4.795-5.289-7.75-7.724-14.384-10.96-6.676-3.256-11.017-4.287-18.3-4.988l-1.313-.126c-6.2-.601-9.735-1.423-14.862-3.924l-.614 1.257z"/><path d="M50.822 179.516c.264.028.533.055.807.081l1.313.126c7.13.687 11.317 1.681 17.82 4.853 6.454 3.147 9.277 5.475 13.963 10.643.483.533.948 1.037 1.399 1.515l3.91 1.908c-1.352-1.228-2.71-2.637-4.273-4.362-4.796-5.289-7.75-7.724-14.385-10.96-6.676-3.256-11.017-4.287-18.3-4.988l-1.312-.126c-1.838-.178-3.442-.376-4.922-.631l3.98 1.941zm6.128-12.564c-5.866-.612-9.46-1.503-14.534-3.978l.613-1.257c3.608 1.76 6.427 2.689 9.94 3.294l3.98 1.941zm35.303 17.218c4.028 4.272 7.018 6.534 12.985 9.444l.613-1.256c-4.299-2.097-6.987-3.829-9.688-6.281l-3.91-1.907zm-52.901-14.914c5.302 2.586 8.989 3.443 15.34 4.059l1.314.126c7.13.687 11.317 1.681 17.82 4.853 6.454 3.147 9.277 5.474 13.963 10.642 4.795 5.289 7.75 7.724 14.385 10.96l.613-1.256c-6.453-3.147-9.276-5.475-13.962-10.643-4.796-5.288-7.75-7.723-14.385-10.959-6.676-3.256-11.017-4.287-18.3-4.988l-1.312-.126c-6.2-.602-9.735-1.423-14.863-3.924l-.613 1.256z"/><path d="M44.69 192.08a219.537 219.537 0 002.12.207c7.13.686 11.318 1.68 17.822 4.853 6.453 3.147 9.276 5.474 13.962 10.642.483.533.948 1.037 1.4 1.516l3.91 1.907c-1.353-1.228-2.71-2.637-4.274-4.362-4.795-5.289-7.75-7.724-14.385-10.96-6.675-3.256-11.017-4.286-18.3-4.988l-1.312-.126c-1.838-.178-3.441-.375-4.922-.63l3.98 1.941zm6.129-12.565c-5.866-.612-9.46-1.503-14.534-3.978l.613-1.256c3.608 1.76 6.428 2.688 9.94 3.293l3.98 1.941zm35.303 17.219c4.028 4.271 7.018 6.533 12.985 9.444l.613-1.257c-4.3-2.096-6.987-3.829-9.688-6.28l-3.91-1.907zM33.22 181.819c5.303 2.587 8.989 3.444 15.34 4.06l1.314.125c7.13.687 11.317 1.681 17.82 4.853 6.454 3.148 9.277 5.475 13.963 10.643 4.796 5.289 7.75 7.724 14.385 10.96l.613-1.257c-6.453-3.147-9.276-5.474-13.962-10.642-4.795-5.289-7.75-7.724-14.385-10.96-6.675-3.256-11.017-4.287-18.3-4.988l-1.312-.126c-6.2-.601-9.735-1.423-14.863-3.924l-.613 1.256zM181.058 71.955a219.275 219.275 0 002.12.207c7.131.686 11.317 1.68 17.821 4.853 6.453 3.147 9.277 5.474 13.962 10.642.484.533.948 1.037 1.4 1.516l3.911 1.907c-1.354-1.228-2.711-2.637-4.275-4.362-4.795-5.289-7.75-7.724-14.385-10.96-6.675-3.256-11.017-4.286-18.3-4.988L182 70.644c-1.838-.178-3.441-.375-4.921-.63l3.979 1.941zm6.128-12.565c-5.866-.612-9.46-1.503-14.534-3.978l.613-1.256c3.609 1.76 6.428 2.688 9.942 3.293l3.979 1.941zm35.303 17.22c4.029 4.27 7.019 6.532 12.985 9.443l.613-1.257c-4.298-2.096-6.986-3.829-9.687-6.28l-3.911-1.907zm-52.901-14.916c5.303 2.587 8.989 3.444 15.341 4.06l1.313.125c7.131.687 11.317 1.681 17.821 4.853 6.453 3.148 9.277 5.475 13.962 10.643 4.796 5.29 7.75 7.724 14.385 10.96l.613-1.257c-6.452-3.147-9.276-5.474-13.962-10.642-4.795-5.289-7.749-7.724-14.385-10.96-6.675-3.256-11.017-4.287-18.3-4.988l-1.312-.126c-6.2-.6-9.734-1.423-14.863-3.924l-.613 1.256z"/><path d="M174.927 84.516a2087.54 2087.54 0 002.12.207c7.131.687 11.317 1.68 17.821 4.853 6.453 3.147 9.277 5.475 13.963 10.643.483.533.947 1.037 1.399 1.515l3.911 1.908c-1.354-1.228-2.711-2.637-4.275-4.362-4.795-5.29-7.749-7.724-14.385-10.96-6.675-3.256-11.017-4.287-18.3-4.988l-1.312-.126c-1.838-.178-3.441-.376-4.921-.631l3.979 1.94zm6.128-12.564c-5.865-.612-9.46-1.503-14.534-3.978l.613-1.257c3.609 1.76 6.428 2.689 9.942 3.294l3.979 1.94zm35.303 17.218c4.029 4.272 7.019 6.534 12.985 9.444l.613-1.256c-4.298-2.097-6.986-3.83-9.687-6.281l-3.911-1.907zm-52.901-14.914c5.303 2.586 8.989 3.443 15.341 4.059l1.313.126c7.131.687 11.317 1.68 17.821 4.853 6.453 3.147 9.277 5.474 13.963 10.642 4.795 5.289 7.749 7.724 14.384 10.96l.613-1.256c-6.452-3.147-9.276-5.475-13.962-10.643-4.795-5.288-7.749-7.723-14.385-10.96-6.675-3.255-11.017-4.286-18.3-4.987l-1.312-.126c-6.2-.602-9.734-1.423-14.863-3.924l-.613 1.256z"/><path d="M168.797 97.078a243.934 243.934 0 002.12.207c7.131.686 11.318 1.68 17.822 4.853 6.452 3.147 9.276 5.474 13.962 10.642.483.533.947 1.037 1.399 1.516l3.911 1.907c-1.354-1.228-2.71-2.637-4.275-4.362-4.795-5.289-7.749-7.723-14.385-10.96-6.675-3.256-11.017-4.286-18.3-4.988l-1.312-.126c-1.838-.178-3.441-.375-4.921-.63l3.979 1.941zm6.128-12.565c-5.865-.612-9.459-1.503-14.533-3.978l.612-1.256c3.609 1.76 6.428 2.688 9.942 3.293l3.979 1.941zm35.303 17.219c4.029 4.271 7.019 6.534 12.986 9.444l.612-1.257c-4.298-2.096-6.986-3.829-9.687-6.28l-3.911-1.907zm-52.9-14.914c5.302 2.586 8.988 3.443 15.34 4.06.269.025 1.188.112 1.313.125 7.131.686 11.318 1.68 17.822 4.852 6.452 3.148 9.276 5.475 13.962 10.643 4.795 5.289 7.749 7.724 14.385 10.96l.612-1.257c-6.452-3.147-9.276-5.474-13.962-10.642-4.795-5.289-7.749-7.724-14.385-10.96-6.675-3.256-11.017-4.287-18.3-4.988l-1.312-.126c-6.2-.6-9.734-1.423-14.863-3.924l-.612 1.257z"/><path d="M162.669 109.643c.264.028.532.055.806.081l1.313.126c7.131.687 11.318 1.681 17.822 4.853 6.452 3.147 9.276 5.475 13.962 10.643.483.533.948 1.037 1.399 1.515l3.911 1.908c-1.354-1.228-2.71-2.637-4.275-4.362-4.795-5.289-7.749-7.724-14.385-10.96-6.675-3.256-11.016-4.287-18.3-4.988l-1.312-.126c-1.837-.178-3.441-.376-4.921-.631l3.98 1.941zm6.128-12.564c-5.866-.612-9.46-1.503-14.534-3.978l.612-1.257c3.609 1.76 6.428 2.689 9.942 3.294l3.98 1.94zm35.302 17.218c4.029 4.272 7.019 6.534 12.986 9.444l.612-1.256c-4.298-2.097-6.986-3.83-9.687-6.281l-3.911-1.907zm-52.9-14.914c5.302 2.586 8.989 3.443 15.34 4.059l1.313.126c7.131.687 11.318 1.681 17.822 4.853 6.452 3.147 9.276 5.474 13.962 10.642 4.795 5.289 7.749 7.724 14.385 10.96l.612-1.256c-6.452-3.147-9.276-5.475-13.962-10.643-4.795-5.288-7.749-7.723-14.385-10.96-6.675-3.255-11.016-4.286-18.3-4.987l-1.312-.126c-6.2-.602-9.734-1.423-14.863-3.924l-.612 1.256z"/><path d="M156.542 122.205l.806.081 1.313.126c7.131.686 11.318 1.68 17.822 4.853 6.452 3.147 9.276 5.474 13.962 10.642.483.533.948 1.037 1.399 1.516l3.911 1.907c-1.354-1.228-2.71-2.637-4.275-4.362-4.795-5.289-7.749-7.724-14.385-10.96-6.675-3.256-11.016-4.286-18.3-4.988l-1.312-.126c-1.837-.178-3.441-.375-4.921-.63l3.98 1.941zm6.128-12.565c-5.866-.612-9.46-1.503-14.534-3.978l.613-1.256c3.608 1.76 6.427 2.688 9.941 3.293l3.98 1.941zm35.302 17.219c4.029 4.271 7.019 6.533 12.986 9.444l.613-1.257c-4.299-2.096-6.987-3.829-9.688-6.28l-3.911-1.907zm-52.9-14.915c5.302 2.587 8.989 3.444 15.34 4.06l1.313.125c7.131.687 11.318 1.681 17.822 4.853 6.452 3.148 9.276 5.475 13.962 10.643 4.795 5.289 7.749 7.724 14.385 10.96l.612-1.257c-6.452-3.147-9.276-5.474-13.962-10.642-4.795-5.289-7.749-7.724-14.384-10.96-6.676-3.256-11.017-4.287-18.301-4.988l-1.312-.126c-6.2-.601-9.734-1.423-14.863-3.924l-.612 1.256zM150.413 134.772c.264.028.533.055.806.081l1.314.126c7.13.687 11.317 1.681 17.821 4.853 6.452 3.147 9.276 5.474 13.962 10.642a98.04 98.04 0 001.399 1.516l3.911 1.908c-1.353-1.229-2.71-2.637-4.275-4.362-4.795-5.289-7.749-7.724-14.384-10.96-6.676-3.256-11.017-4.287-18.3-4.988l-1.313-.126c-1.837-.178-3.441-.376-4.921-.631l3.98 1.941zm6.128-12.564c-5.866-.612-9.46-1.504-14.534-3.978l.613-1.257c3.608 1.76 6.427 2.689 9.941 3.294l3.98 1.941zm35.302 17.218c4.029 4.272 7.019 6.534 12.986 9.444l.613-1.256c-4.299-2.097-6.987-3.83-9.688-6.281l-3.911-1.907zm-52.9-14.914c5.302 2.586 8.989 3.443 15.34 4.059l1.314.126c7.13.687 11.317 1.681 17.821 4.853 6.452 3.147 9.276 5.474 13.962 10.642 4.795 5.289 7.749 7.724 14.385 10.96l.613-1.256c-6.453-3.147-9.277-5.475-13.963-10.643-4.795-5.288-7.749-7.723-14.384-10.96-6.676-3.255-11.017-4.286-18.3-4.988l-1.313-.125c-6.2-.602-9.734-1.423-14.862-3.925l-.613 1.257zM144.286 147.341c.264.028.533.055.806.082l1.314.125c7.13.687 11.317 1.681 17.821 4.853 6.452 3.147 9.276 5.475 13.962 10.643.483.533.948 1.037 1.399 1.516l3.911 1.907c-1.353-1.228-2.71-2.637-4.274-4.362-4.796-5.289-7.75-7.724-14.385-10.96-6.676-3.256-11.017-4.287-18.3-4.988l-1.313-.126c-1.837-.178-3.441-.376-4.921-.631l3.98 1.941zm6.128-12.564c-5.866-.612-9.46-1.503-14.534-3.978l.613-1.256c3.608 1.76 6.427 2.688 9.941 3.293l3.98 1.941zm35.302 17.218c4.029 4.272 7.019 6.534 12.986 9.444l.613-1.256c-4.299-2.097-6.987-3.829-9.688-6.28l-3.911-1.908zm-52.9-14.914c5.302 2.586 8.989 3.443 15.34 4.059l1.314.126c7.13.687 11.317 1.681 17.821 4.853 6.452 3.147 9.276 5.475 13.962 10.643 4.795 5.288 7.749 7.723 14.385 10.96l.613-1.257c-6.453-3.147-9.277-5.474-13.962-10.642-4.796-5.289-7.75-7.724-14.385-10.96-6.676-3.256-11.017-4.287-18.3-4.988l-1.313-.126c-6.2-.601-9.734-1.423-14.862-3.924l-.613 1.256z"/><path d="M138.156 159.901c.264.028.533.055.807.081l1.313.126c7.13.687 11.317 1.681 17.821 4.853 6.452 3.147 9.276 5.474 13.962 10.642.483.533.948 1.037 1.399 1.516l3.911 1.908c-1.353-1.229-2.71-2.637-4.274-4.363-4.796-5.288-7.75-7.723-14.385-10.959-6.676-3.256-11.017-4.287-18.3-4.988l-1.312-.126c-1.838-.179-3.442-.376-4.922-.631l3.98 1.941zm6.128-12.564c-5.866-.612-9.46-1.504-14.534-3.978l.613-1.257c3.608 1.76 6.427 2.688 9.941 3.294l3.98 1.941zm35.302 17.218c4.029 4.272 7.019 6.534 12.986 9.444l.613-1.257c-4.299-2.096-6.987-3.829-9.688-6.28l-3.911-1.907zm-52.9-14.914c5.302 2.586 8.989 3.443 15.341 4.059l1.313.126c7.13.686 11.317 1.681 17.821 4.853 6.453 3.147 9.276 5.474 13.962 10.642 4.795 5.289 7.75 7.724 14.385 10.96l.613-1.256c-6.453-3.147-9.277-5.475-13.962-10.643-4.796-5.288-7.75-7.723-14.385-10.96-6.676-3.255-11.017-4.286-18.3-4.988l-1.312-.125c-6.2-.602-9.735-1.423-14.863-3.925l-.613 1.257z"/><path d="M132.033 172.461l.807.081 1.312.126c7.13.686 11.318 1.68 17.822 4.852 6.452 3.148 9.276 5.475 13.962 10.643.483.533.948 1.037 1.399 1.516l3.91 1.907c-1.353-1.228-2.71-2.637-4.274-4.362-4.796-5.289-7.749-7.724-14.384-10.96-6.676-3.256-11.018-4.287-18.301-4.988l-1.312-.126c-1.837-.178-3.441-.376-4.921-.63l3.98 1.941zm6.128-12.565c-5.866-.612-9.46-1.503-14.534-3.978l.613-1.256c3.608 1.76 6.426 2.688 9.94 3.293l3.981 1.941zm35.302 17.218c4.029 4.272 7.019 6.534 12.986 9.444l.613-1.256c-4.299-2.096-6.987-3.829-9.688-6.28l-3.911-1.908zM120.562 162.2c5.303 2.587 8.99 3.443 15.342 4.059.269.027 1.187.114 1.313.126 7.13.687 11.317 1.681 17.821 4.853 6.452 3.147 9.275 5.475 13.961 10.643 4.795 5.288 7.751 7.723 14.386 10.96l.612-1.257c-6.453-3.147-9.276-5.474-13.961-10.642-4.796-5.289-7.751-7.724-14.386-10.96-6.676-3.256-11.016-4.287-18.299-4.988l-1.313-.126c-6.2-.601-9.734-1.423-14.862-3.924l-.614 1.256zM125.9 185.031a219.537 219.537 0 002.12.207c7.13.687 11.317 1.681 17.821 4.853 6.453 3.147 9.276 5.474 13.962 10.642.483.533.948 1.037 1.4 1.516l3.91 1.908c-1.353-1.229-2.71-2.637-4.274-4.363-4.795-5.288-7.75-7.723-14.385-10.96-6.675-3.255-11.017-4.286-18.3-4.988l-1.312-.125c-1.838-.179-3.441-.376-4.922-.631l3.98 1.941zm6.128-12.565c-5.866-.612-9.46-1.503-14.534-3.978l.613-1.256c3.608 1.76 6.428 2.688 9.941 3.293l3.98 1.941zm35.303 17.219c4.028 4.272 7.018 6.534 12.985 9.444l.613-1.257c-4.299-2.096-6.987-3.829-9.688-6.28l-3.91-1.907zm-52.901-14.914c5.303 2.586 8.989 3.443 15.341 4.059l1.313.126c7.13.686 11.317 1.68 17.821 4.853 6.453 3.147 9.276 5.474 13.962 10.642 4.795 5.289 7.75 7.724 14.385 10.96l.613-1.256c-6.453-3.148-9.276-5.475-13.962-10.643-4.795-5.289-7.75-7.724-14.385-10.96-6.675-3.256-11.017-4.286-18.3-4.988l-1.312-.126c-6.2-.601-9.735-1.422-14.863-3.924l-.613 1.257z"/></g><defs><clipPath id="decoration3clip0"><path fill="#fff" d="M-71-71h246v321H-71z"/></clipPath></defs></svg>