<svg width="207" height="207" viewBox="0 0 207 207" fill="none" xmlns="http://www.w3.org/2000/svg"><path fill-rule="evenodd" clip-rule="evenodd" d="M6.469 12.938A6.469 6.469 0 106.469 0a6.469 6.469 0 000 12.938zm0-1.618a4.852 4.852 0 100-9.703 4.852 4.852 0 000 9.703zM33.487 6.47l4.811-4.811L37.155.514l-4.811 4.811-4.811-4.81-1.144 1.143 4.811 4.81-4.81 4.812 1.143 1.143 4.81-4.81 4.812 4.81 1.143-1.143-4.81-4.811zm-1.143 32.343a6.469 6.469 0 100-12.937 6.469 6.469 0 000 12.938zm0-1.617a4.852 4.852 0 100-9.703 4.852 4.852 0 000 9.703zM7.612 32.344l4.811-4.811-1.143-1.144L6.469 31.2l-4.811-4.81-1.144 1.143 4.811 4.81-4.81 4.812 1.143 1.143 4.81-4.81 4.812 4.81 1.143-1.143-4.81-4.811z" fill="currentColor"/><g clip-path="url(#decoration4clip0)"><path fill-rule="evenodd" clip-rule="evenodd" d="M109.969 12.938a6.47 6.47 0 100-12.94 6.47 6.47 0 000 12.94zm0-1.618a4.851 4.851 0 100-9.702 4.851 4.851 0 000 9.702zm27.018-4.851l4.811-4.811-1.143-1.144-4.811 4.811-4.811-4.81-1.144 1.143 4.811 4.81-4.811 4.812 1.144 1.143 4.811-4.81 4.811 4.81 1.143-1.143-4.811-4.811zm-1.143 32.343a6.469 6.469 0 10-.001-12.937 6.469 6.469 0 00.001 12.938zm0-1.617a4.851 4.851 0 100-9.702 4.851 4.851 0 000 9.702zm-24.732-4.851l4.811-4.811-1.143-1.144-4.811 4.811-4.811-4.81-1.144 1.143 4.811 4.81-4.811 4.812 1.144 1.143 4.811-4.81 4.811 4.81 1.143-1.143-4.811-4.811z" fill="currentColor"/></g><g clip-path="url(#decoration4clip1)"><path fill-rule="evenodd" clip-rule="evenodd" d="M6.469 64.688a6.469 6.469 0 100-12.938 6.469 6.469 0 000 12.938zm0-1.618a4.852 4.852 0 100-9.703 4.852 4.852 0 000 9.703zm27.018-4.851l4.811-4.811-1.143-1.144-4.811 4.811-4.811-4.81-1.144 1.143 4.811 4.81-4.81 4.812 1.143 1.143 4.81-4.81 4.812 4.81 1.143-1.143-4.81-4.811zm-1.143 32.343a6.469 6.469 0 100-12.937 6.469 6.469 0 000 12.938zm0-1.617a4.852 4.852 0 100-9.703 4.852 4.852 0 000 9.703zM7.612 84.094l4.811-4.811-1.143-1.144-4.811 4.811-4.811-4.81-1.144 1.143 4.811 4.81-4.81 4.812 1.143 1.143 4.81-4.81 4.812 4.81 1.143-1.143-4.81-4.811z" fill="currentColor"/></g><g clip-path="url(#decoration4clip2)"><path fill-rule="evenodd" clip-rule="evenodd" d="M109.969 64.688a6.47 6.47 0 100-12.94 6.47 6.47 0 000 12.94zm0-1.618a4.851 4.851 0 100-9.702 4.851 4.851 0 000 9.702zm27.018-4.851l4.811-4.811-1.143-1.144-4.811 4.811-4.811-4.81-1.144 1.143 4.811 4.81-4.811 4.812 1.144 1.143 4.811-4.81 4.811 4.81 1.143-1.143-4.811-4.811zm-1.143 32.343a6.469 6.469 0 10-.001-12.937 6.469 6.469 0 00.001 12.938zm0-1.617a4.851 4.851 0 100-9.702 4.851 4.851 0 000 9.702zm-24.732-4.851l4.811-4.811-1.143-1.144-4.811 4.811-4.811-4.81-1.144 1.143 4.811 4.81-4.811 4.812 1.144 1.143 4.811-4.81 4.811 4.81 1.143-1.143-4.811-4.811z" fill="currentColor"/></g><g clip-path="url(#decoration4clip3)"><path fill-rule="evenodd" clip-rule="evenodd" d="M58.219 12.938a6.469 6.469 0 100-12.938 6.469 6.469 0 000 12.938zm0-1.618a4.852 4.852 0 100-9.703 4.852 4.852 0 000 9.703zM85.237 6.47l4.811-4.811L88.905.514l-4.811 4.811-4.811-4.81-1.144 1.143 4.811 4.81-4.81 4.812 1.143 1.143 4.81-4.81 4.812 4.81 1.143-1.143-4.81-4.811zm-1.143 32.343a6.469 6.469 0 100-12.937 6.469 6.469 0 000 12.938zm0-1.617a4.852 4.852 0 100-9.703 4.852 4.852 0 000 9.703zm-24.732-4.851l4.811-4.811-1.143-1.144-4.811 4.811-4.811-4.81-1.144 1.143 4.811 4.81-4.81 4.812 1.143 1.143 4.81-4.81 4.812 4.81 1.143-1.143-4.81-4.811z" fill="currentColor"/></g><g clip-path="url(#decoration4clip4)"><path fill-rule="evenodd" clip-rule="evenodd" d="M161.719 12.938a6.47 6.47 0 100-12.94 6.47 6.47 0 000 12.94zm0-1.618a4.851 4.851 0 100-9.702 4.851 4.851 0 000 9.702zm27.018-4.851l4.811-4.811-1.143-1.144-4.811 4.811-4.811-4.81-1.144 1.143 4.811 4.81-4.811 4.812 1.144 1.143 4.811-4.81 4.811 4.81 1.143-1.143-4.811-4.811zm-1.143 32.343a6.469 6.469 0 10-.001-12.937 6.469 6.469 0 00.001 12.938zm0-1.617a4.851 4.851 0 100-9.702 4.851 4.851 0 000 9.702zm-24.732-4.851l4.811-4.811-1.143-1.144-4.811 4.811-4.811-4.81-1.144 1.143 4.811 4.81-4.811 4.812 1.144 1.143 4.811-4.81 4.811 4.81 1.143-1.143-4.811-4.811z" fill="currentColor"/></g><g clip-path="url(#decoration4clip5)"><path fill-rule="evenodd" clip-rule="evenodd" d="M58.219 64.688a6.469 6.469 0 100-12.938 6.469 6.469 0 000 12.938zm0-1.618a4.852 4.852 0 100-9.703 4.852 4.852 0 000 9.703zm27.018-4.851l4.811-4.811-1.143-1.144-4.811 4.811-4.811-4.81-1.144 1.143 4.811 4.81-4.81 4.812 1.143 1.143 4.81-4.81 4.812 4.81 1.143-1.143-4.81-4.811zm-1.143 32.343a6.469 6.469 0 100-12.937 6.469 6.469 0 000 12.938zm0-1.617a4.852 4.852 0 100-9.703 4.852 4.852 0 000 9.703zm-24.732-4.851l4.811-4.811-1.143-1.144-4.811 4.811-4.811-4.81-1.144 1.143 4.811 4.81-4.81 4.812 1.143 1.143 4.81-4.81 4.812 4.81 1.143-1.143-4.81-4.811z" fill="currentColor"/></g><g clip-path="url(#decoration4clip6)"><path fill-rule="evenodd" clip-rule="evenodd" d="M161.719 64.688a6.47 6.47 0 100-12.94 6.47 6.47 0 000 12.94zm0-1.618a4.851 4.851 0 100-9.702 4.851 4.851 0 000 9.702zm27.018-4.851l4.811-4.811-1.143-1.144-4.811 4.811-4.811-4.81-1.144 1.143 4.811 4.81-4.811 4.812 1.144 1.143 4.811-4.81 4.811 4.81 1.143-1.143-4.811-4.811zm-1.143 32.343a6.469 6.469 0 10-.001-12.937 6.469 6.469 0 00.001 12.938zm0-1.617a4.851 4.851 0 100-9.702 4.851 4.851 0 000 9.702zm-24.732-4.851l4.811-4.811-1.143-1.144-4.811 4.811-4.811-4.81-1.144 1.143 4.811 4.81-4.811 4.812 1.144 1.143 4.811-4.81 4.811 4.81 1.143-1.143-4.811-4.811z" fill="currentColor"/></g><g clip-path="url(#decoration4clip7)"><path fill-rule="evenodd" clip-rule="evenodd" d="M6.469 116.438a6.47 6.47 0 10-.001-12.939 6.47 6.47 0 000 12.939zm0-1.618a4.851 4.851 0 100-9.703 4.851 4.851 0 000 9.703zm27.018-4.851l4.811-4.811-1.143-1.144-4.811 4.811-4.811-4.811-1.144 1.144 4.811 4.811-4.81 4.811 1.143 1.143 4.81-4.811 4.812 4.811 1.143-1.143-4.81-4.811zm-1.143 32.343a6.469 6.469 0 100-12.937 6.469 6.469 0 000 12.937zm0-1.617a4.851 4.851 0 100-9.703 4.851 4.851 0 000 9.703zm-24.732-4.851l4.811-4.811-1.143-1.144-4.811 4.811-4.811-4.811-1.144 1.144 4.811 4.811-4.81 4.811 1.143 1.143 4.81-4.811 4.812 4.811 1.143-1.143-4.81-4.811z" fill="currentColor"/></g><g clip-path="url(#decoration4clip8)"><path fill-rule="evenodd" clip-rule="evenodd" d="M109.969 116.438a6.47 6.47 0 10-.002-12.94 6.47 6.47 0 00.002 12.94zm0-1.618a4.851 4.851 0 100-9.702 4.851 4.851 0 000 9.702zm27.018-4.851l4.811-4.811-1.143-1.144-4.811 4.811-4.811-4.811-1.144 1.144 4.811 4.811-4.811 4.811 1.144 1.143 4.811-4.811 4.811 4.811 1.143-1.143-4.811-4.811zm-1.143 32.343a6.468 6.468 0 100-12.936 6.468 6.468 0 000 12.936zm0-1.617a4.851 4.851 0 100-9.702 4.851 4.851 0 000 9.702zm-24.732-4.851l4.811-4.811-1.143-1.144-4.811 4.811-4.811-4.811-1.144 1.144 4.811 4.811-4.811 4.811 1.144 1.143 4.811-4.811 4.811 4.811 1.143-1.143-4.811-4.811z" fill="currentColor"/></g><g clip-path="url(#decoration4clip9)"><path fill-rule="evenodd" clip-rule="evenodd" d="M6.469 168.188a6.47 6.47 0 10-.001-12.939 6.47 6.47 0 000 12.939zm0-1.618a4.851 4.851 0 100-9.703 4.851 4.851 0 000 9.703zm27.018-4.851l4.811-4.811-1.143-1.144-4.811 4.811-4.811-4.811-1.144 1.144 4.811 4.811-4.81 4.811 1.143 1.143 4.81-4.811 4.812 4.811 1.143-1.143-4.81-4.811zm-1.143 32.343a6.469 6.469 0 100-12.937 6.469 6.469 0 000 12.937zm0-1.617a4.851 4.851 0 100-9.703 4.851 4.851 0 000 9.703zm-24.732-4.851l4.811-4.811-1.143-1.144-4.811 4.811-4.811-4.811-1.144 1.144 4.811 4.811-4.81 4.811 1.143 1.143 4.81-4.811 4.812 4.811 1.143-1.143-4.81-4.811z" fill="currentColor"/></g><g clip-path="url(#decoration4clip10)"><path fill-rule="evenodd" clip-rule="evenodd" d="M109.969 168.188a6.47 6.47 0 10-.002-12.94 6.47 6.47 0 00.002 12.94zm0-1.618a4.851 4.851 0 100-9.702 4.851 4.851 0 000 9.702zm27.018-4.851l4.811-4.811-1.143-1.144-4.811 4.811-4.811-4.811-1.144 1.144 4.811 4.811-4.811 4.811 1.144 1.143 4.811-4.811 4.811 4.811 1.143-1.143-4.811-4.811zm-1.143 32.343a6.468 6.468 0 100-12.936 6.468 6.468 0 000 12.936zm0-1.617a4.851 4.851 0 100-9.702 4.851 4.851 0 000 9.702zm-24.732-4.851l4.811-4.811-1.143-1.144-4.811 4.811-4.811-4.811-1.144 1.144 4.811 4.811-4.811 4.811 1.144 1.143 4.811-4.811 4.811 4.811 1.143-1.143-4.811-4.811z" fill="currentColor"/></g><g clip-path="url(#decoration4clip11)"><path fill-rule="evenodd" clip-rule="evenodd" d="M58.219 116.438a6.47 6.47 0 10-.002-12.939 6.47 6.47 0 00.002 12.939zm0-1.618a4.851 4.851 0 100-9.703 4.851 4.851 0 000 9.703zm27.018-4.851l4.811-4.811-1.143-1.144-4.811 4.811-4.811-4.811-1.144 1.144 4.811 4.811-4.81 4.811 1.143 1.143 4.81-4.811 4.812 4.811 1.143-1.143-4.81-4.811zm-1.143 32.343a6.469 6.469 0 100-12.937 6.469 6.469 0 000 12.937zm0-1.617a4.851 4.851 0 100-9.703 4.851 4.851 0 000 9.703zm-24.732-4.851l4.811-4.811-1.143-1.144-4.811 4.811-4.811-4.811-1.144 1.144 4.811 4.811-4.81 4.811 1.143 1.143 4.81-4.811 4.812 4.811 1.143-1.143-4.81-4.811z" fill="currentColor"/></g><g clip-path="url(#decoration4clip12)"><path fill-rule="evenodd" clip-rule="evenodd" d="M161.719 116.438a6.47 6.47 0 10-.002-12.94 6.47 6.47 0 00.002 12.94zm0-1.618a4.851 4.851 0 100-9.702 4.851 4.851 0 000 9.702zm27.018-4.851l4.811-4.811-1.143-1.144-4.811 4.811-4.811-4.811-1.144 1.144 4.811 4.811-4.811 4.811 1.144 1.143 4.811-4.811 4.811 4.811 1.143-1.143-4.811-4.811zm-1.143 32.343a6.468 6.468 0 100-12.936 6.468 6.468 0 000 12.936zm0-1.617a4.851 4.851 0 100-9.702 4.851 4.851 0 000 9.702zm-24.732-4.851l4.811-4.811-1.143-1.144-4.811 4.811-4.811-4.811-1.144 1.144 4.811 4.811-4.811 4.811 1.144 1.143 4.811-4.811 4.811 4.811 1.143-1.143-4.811-4.811z" fill="currentColor"/></g><g clip-path="url(#decoration4clip13)"><path fill-rule="evenodd" clip-rule="evenodd" d="M58.219 168.188a6.47 6.47 0 10-.002-12.939 6.47 6.47 0 00.002 12.939zm0-1.618a4.851 4.851 0 100-9.703 4.851 4.851 0 000 9.703zm27.018-4.851l4.811-4.811-1.143-1.144-4.811 4.811-4.811-4.811-1.144 1.144 4.811 4.811-4.81 4.811 1.143 1.143 4.81-4.811 4.812 4.811 1.143-1.143-4.81-4.811zm-1.143 32.343a6.469 6.469 0 100-12.937 6.469 6.469 0 000 12.937zm0-1.617a4.851 4.851 0 100-9.703 4.851 4.851 0 000 9.703zm-24.732-4.851l4.811-4.811-1.143-1.144-4.811 4.811-4.811-4.811-1.144 1.144 4.811 4.811-4.81 4.811 1.143 1.143 4.81-4.811 4.812 4.811 1.143-1.143-4.81-4.811z" fill="currentColor"/></g><g clip-path="url(#decoration4clip14)"><path fill-rule="evenodd" clip-rule="evenodd" d="M161.719 168.188a6.47 6.47 0 10-.002-12.94 6.47 6.47 0 00.002 12.94zm0-1.618a4.851 4.851 0 100-9.702 4.851 4.851 0 000 9.702zm27.018-4.851l4.811-4.811-1.143-1.144-4.811 4.811-4.811-4.811-1.144 1.144 4.811 4.811-4.811 4.811 1.144 1.143 4.811-4.811 4.811 4.811 1.143-1.143-4.811-4.811zm-1.143 32.343a6.468 6.468 0 100-12.936 6.468 6.468 0 000 12.936zm0-1.617a4.851 4.851 0 100-9.702 4.851 4.851 0 000 9.702zm-24.732-4.851l4.811-4.811-1.143-1.144-4.811 4.811-4.811-4.811-1.144 1.144 4.811 4.811-4.811 4.811 1.144 1.143 4.811-4.811 4.811 4.811 1.143-1.143-4.811-4.811z" fill="currentColor"/></g><defs><clipPath id="decoration4clip7"><path fill="#fff" d="M0 103.5h51.75v51.75H0z"/></clipPath><clipPath id="decoration4clip0"><path fill="#fff" d="M103.5 0h51.75v51.75H103.5z"/></clipPath><clipPath id="decoration4clip2"><path fill="#fff" d="M103.5 51.75h51.75v51.75H103.5z"/></clipPath><clipPath id="decoration4clip3"><path fill="#fff" d="M51.75 0h51.75v51.75H51.75z"/></clipPath><clipPath id="decoration4clip4"><path fill="#fff" d="M155.25 0H207v51.75h-51.75z"/></clipPath><clipPath id="decoration4clip5"><path fill="#fff" d="M51.75 51.75h51.75v51.75H51.75z"/></clipPath><clipPath id="decoration4clip6"><path fill="#fff" d="M155.25 51.75H207v51.75h-51.75z"/></clipPath><clipPath id="decoration4clip1"><path fill="#fff" d="M0 51.75h51.75v51.75H0z"/></clipPath><clipPath id="decoration4clip8"><path fill="#fff" d="M103.5 103.5h51.75v51.75H103.5z"/></clipPath><clipPath id="decoration4clip9"><path fill="#fff" d="M0 155.25h51.75V207H0z"/></clipPath><clipPath id="decoration4clip10"><path fill="#fff" d="M103.5 155.25h51.75V207H103.5z"/></clipPath><clipPath id="decoration4clip11"><path fill="#fff" d="M51.75 103.5h51.75v51.75H51.75z"/></clipPath><clipPath id="decoration4clip12"><path fill="#fff" d="M155.25 103.5H207v51.75h-51.75z"/></clipPath><clipPath id="decoration4clip13"><path fill="#fff" d="M51.75 155.25h51.75V207H51.75z"/></clipPath><clipPath id="decoration4clip14"><path fill="#fff" d="M155.25 155.25H207V207h-51.75z"/></clipPath></defs></svg>