<svg width="129" height="208" viewBox="0 0 129 208" fill="none" xmlns="http://www.w3.org/2000/svg"><g clip-path="url(#decoration5clip0)"><path fill-rule="evenodd" clip-rule="evenodd" d="M142.812 201.281a6.47 6.47 0 1112.94.002 6.47 6.47 0 01-12.94-.002zm1.618 0a4.851 4.851 0 119.702 0 4.851 4.851 0 01-9.702 0zm4.851-27.018l4.811-4.811 1.144 1.143-4.811 4.811 4.811 4.811-1.144 1.144-4.811-4.811-4.811 4.811-1.143-1.144 4.811-4.811-4.811-4.811 1.143-1.143 4.811 4.811zm-32.343 1.143a6.468 6.468 0 1112.936 0 6.468 6.468 0 01-12.936 0zm1.617 0a4.851 4.851 0 119.702 0 4.851 4.851 0 01-9.702 0zm4.851 24.732l4.811-4.811 1.144 1.143-4.811 4.811 4.811 4.811-1.144 1.144-4.811-4.811-4.811 4.811-1.143-1.144 4.811-4.811-4.811-4.811 1.143-1.143 4.811 4.811z" fill="currentColor"/></g><g clip-path="url(#decoration5clip1)"><path fill-rule="evenodd" clip-rule="evenodd" d="M142.812 149.281a6.47 6.47 0 1112.94.002 6.47 6.47 0 01-12.94-.002zm1.618 0a4.851 4.851 0 119.702 0 4.851 4.851 0 01-9.702 0zm4.851-27.018l4.811-4.811 1.144 1.143-4.811 4.811 4.811 4.811-1.144 1.144-4.811-4.811-4.811 4.811-1.143-1.144 4.811-4.811-4.811-4.811 1.143-1.143 4.811 4.811zm-32.343 1.143a6.468 6.468 0 1112.936 0 6.468 6.468 0 01-12.936 0zm1.617 0a4.851 4.851 0 119.702 0 4.851 4.851 0 01-9.702 0zm4.851 24.732l4.811-4.811 1.144 1.143-4.811 4.811 4.811 4.811-1.144 1.144-4.811-4.811-4.811 4.811-1.143-1.144 4.811-4.811-4.811-4.811 1.143-1.143 4.811 4.811z" fill="currentColor"/></g><g clip-path="url(#decoration5clip2)"><path fill-rule="evenodd" clip-rule="evenodd" d="M142.812 97.281a6.47 6.47 0 1112.939.002 6.47 6.47 0 01-12.939-.002zm1.618 0a4.851 4.851 0 119.703 0 4.851 4.851 0 01-9.703 0zm4.851-27.018l4.811-4.811 1.144 1.143-4.811 4.811 4.811 4.811-1.144 1.144-4.811-4.811-4.811 4.81-1.143-1.143 4.811-4.81-4.811-4.812 1.143-1.143 4.811 4.81zm-32.343 1.143a6.469 6.469 0 1112.937 0 6.469 6.469 0 01-12.937 0zm1.617 0a4.851 4.851 0 119.703 0 4.851 4.851 0 01-9.703 0zm4.851 24.732l4.811-4.811 1.144 1.143-4.811 4.811 4.811 4.811-1.144 1.144-4.811-4.811-4.811 4.811-1.143-1.144 4.811-4.81-4.811-4.812 1.143-1.143 4.811 4.81z" fill="currentColor"/></g><g clip-path="url(#decoration5clip3)"><path fill-rule="evenodd" clip-rule="evenodd" d="M38.813 149.281a6.47 6.47 0 1112.938 0 6.47 6.47 0 01-12.938 0zm1.617 0a4.851 4.851 0 119.702 0 4.851 4.851 0 01-9.702 0zm4.851-27.018l4.811-4.811 1.144 1.143-4.811 4.811 4.81 4.811-1.143 1.144-4.81-4.811-4.812 4.811-1.143-1.144 4.81-4.811-4.81-4.811 1.143-1.143 4.811 4.811zm-32.343 1.143a6.469 6.469 0 1112.937.001 6.469 6.469 0 01-12.938-.001zm1.617 0a4.851 4.851 0 119.702 0 4.851 4.851 0 01-9.702 0zm4.851 24.732l4.811-4.811 1.144 1.143-4.811 4.811 4.81 4.811-1.143 1.144-4.81-4.811-4.812 4.811-1.143-1.144 4.81-4.811-4.81-4.811 1.143-1.143 4.811 4.811z" fill="currentColor"/></g><g clip-path="url(#decoration5clip4)"><path fill-rule="evenodd" clip-rule="evenodd" d="M38.813 97.281a6.469 6.469 0 1112.937 0 6.469 6.469 0 01-12.938 0zm1.617 0a4.852 4.852 0 119.703 0 4.852 4.852 0 01-9.703 0zm4.851-27.018l4.811-4.811 1.144 1.143-4.811 4.811 4.81 4.811-1.143 1.144-4.81-4.811-4.812 4.81-1.143-1.143 4.81-4.81-4.81-4.812 1.143-1.143 4.811 4.81zm-32.343 1.143a6.469 6.469 0 1112.937 0 6.469 6.469 0 01-12.938 0zm1.617 0a4.852 4.852 0 119.703 0 4.852 4.852 0 01-9.703 0zm4.851 24.732l4.811-4.811 1.144 1.143-4.811 4.811 4.81 4.811-1.143 1.144-4.81-4.811-4.812 4.811-1.143-1.144 4.81-4.81-4.81-4.812 1.143-1.143 4.811 4.81z" fill="currentColor"/></g><g clip-path="url(#decoration5clip5)"><path fill-rule="evenodd" clip-rule="evenodd" d="M38.813 45.281a6.469 6.469 0 1112.937 0 6.469 6.469 0 01-12.938 0zm1.617 0a4.852 4.852 0 119.703 0 4.852 4.852 0 01-9.703 0zm4.851-27.018l4.811-4.811 1.144 1.143-4.811 4.811 4.81 4.811-1.143 1.144-4.81-4.811-4.812 4.81-1.143-1.143 4.81-4.81-4.81-4.812 1.143-1.143 4.811 4.81zm-32.343 1.143a6.469 6.469 0 1112.937 0 6.469 6.469 0 01-12.938 0zm1.617 0a4.852 4.852 0 119.703 0 4.852 4.852 0 01-9.703 0zm4.851 24.732l4.811-4.811 1.144 1.143-4.811 4.811 4.81 4.811-1.143 1.144-4.81-4.811-4.812 4.81-1.143-1.143 4.81-4.81-4.81-4.812 1.143-1.143 4.811 4.81z" fill="currentColor"/></g><g clip-path="url(#decoration5clip6)"><path fill-rule="evenodd" clip-rule="evenodd" d="M90.813 175.281a6.47 6.47 0 1112.938 0 6.47 6.47 0 01-12.939 0zm1.617 0a4.851 4.851 0 119.702 0 4.851 4.851 0 01-9.702 0zm4.851-27.018l4.811-4.811 1.144 1.143-4.811 4.811 4.811 4.811-1.144 1.144-4.81-4.811-4.812 4.811-1.143-1.144 4.81-4.811-4.81-4.811 1.143-1.143 4.811 4.811zm-32.344 1.143a6.469 6.469 0 1112.938.001 6.469 6.469 0 01-12.938-.001zm1.618 0a4.851 4.851 0 119.702 0 4.851 4.851 0 01-9.702 0zm4.851 24.732l4.811-4.811 1.144 1.143-4.811 4.811 4.81 4.811-1.143 1.144-4.81-4.811-4.812 4.811-1.143-1.144 4.81-4.811-4.81-4.811 1.143-1.143 4.811 4.811z" fill="currentColor"/></g><g clip-path="url(#decoration5clip7)"><path fill-rule="evenodd" clip-rule="evenodd" d="M90.813 123.281a6.47 6.47 0 1112.938 0 6.47 6.47 0 01-12.939 0zm1.617 0a4.851 4.851 0 119.702 0 4.851 4.851 0 01-9.702 0zm4.851-27.018l4.811-4.811 1.144 1.143-4.811 4.811 4.811 4.811-1.144 1.144-4.81-4.811-4.812 4.811-1.143-1.144 4.81-4.81-4.81-4.812 1.143-1.143 4.811 4.81zm-32.344 1.143a6.469 6.469 0 1112.938 0 6.469 6.469 0 01-12.938 0zm1.618 0a4.852 4.852 0 119.703 0 4.852 4.852 0 01-9.703 0zm4.851 24.732l4.811-4.811 1.144 1.143-4.811 4.811 4.81 4.811-1.143 1.144-4.81-4.811-4.812 4.811-1.143-1.144 4.81-4.811-4.81-4.811 1.143-1.143 4.811 4.811z" fill="currentColor"/></g><g clip-path="url(#decoration5clip8)"><path fill-rule="evenodd" clip-rule="evenodd" d="M90.813 71.281a6.469 6.469 0 1112.937 0 6.469 6.469 0 01-12.938 0zm1.617 0a4.852 4.852 0 119.703 0 4.852 4.852 0 01-9.703 0zm4.851-27.018l4.811-4.811 1.144 1.143-4.811 4.811 4.811 4.811-1.144 1.144-4.81-4.811-4.812 4.81-1.143-1.143 4.81-4.81-4.81-4.812 1.143-1.143 4.811 4.81zm-32.344 1.143a6.469 6.469 0 1112.938 0 6.469 6.469 0 01-12.938 0zm1.618 0a4.852 4.852 0 119.703 0 4.852 4.852 0 01-9.703 0zm4.851 24.732l4.811-4.811 1.144 1.143-4.811 4.811 4.81 4.811-1.143 1.144-4.81-4.811-4.812 4.81-1.143-1.143 4.81-4.81-4.81-4.812 1.143-1.143 4.811 4.81z" fill="currentColor"/></g><defs><clipPath id="decoration4clip0"><path transform="matrix(0 -1 -1 0 155.75 207.75)" fill="#fff" d="M0 0h51.75v51.75H0z"/></clipPath><clipPath id="decoration4clip1"><path transform="rotate(-90 155.75 0)" fill="#fff" d="M0 0h51.75v51.75H0z"/></clipPath><clipPath id="decoration4clip2"><path transform="matrix(0 -1 -1 0 155.75 103.75)" fill="#fff" d="M0 0h51.75v51.75H0z"/></clipPath><clipPath id="decoration4clip3"><path transform="matrix(0 -1 -1 0 51.75 155.75)" fill="#fff" d="M0 0h51.75v51.75H0z"/></clipPath><clipPath id="decoration4clip4"><path transform="matrix(0 -1 -1 0 51.75 103.75)" fill="#fff" d="M0 0h51.75v51.75H0z"/></clipPath><clipPath id="decoration4clip5"><path transform="matrix(0 -1 -1 0 51.75 51.75)" fill="#fff" d="M0 0h51.75v51.75H0z"/></clipPath><clipPath id="decoration4clip6"><path transform="matrix(0 -1 -1 0 103.75 181.75)" fill="#fff" d="M0 0h51.75v51.75H0z"/></clipPath><clipPath id="decoration4clip7"><path transform="matrix(0 -1 -1 0 103.75 129.75)" fill="#fff" d="M0 0h51.75v51.75H0z"/></clipPath><clipPath id="decoration4clip8"><path transform="matrix(0 -1 -1 0 103.75 77.75)" fill="#fff" d="M0 0h51.75v51.75H0z"/></clipPath></defs></svg>